<?xml version="1.0" encoding="UTF-8" standalone="no"?>
<!-- Created with Inkscape (http://www.inkscape.org/) -->

<svg
   xmlns:dc="http://purl.org/dc/elements/1.1/"
   xmlns:cc="http://creativecommons.org/ns#"
   xmlns:rdf="http://www.w3.org/1999/02/22-rdf-syntax-ns#"
   xmlns:svg="http://www.w3.org/2000/svg"
   xmlns="http://www.w3.org/2000/svg"
   xmlns:sodipodi="http://sodipodi.sourceforge.net/DTD/sodipodi-0.dtd"
   xmlns:inkscape="http://www.inkscape.org/namespaces/inkscape"
   id="svg2"
   version="1.1"
   inkscape:version="0.48.4 r9939"
   width="967.5"
   height="495"
   xml:space="preserve"
   sodipodi:docname="rede.eps"><metadata
     id="metadata8"><rdf:RDF><cc:Work
         rdf:about=""><dc:format>image/svg+xml</dc:format><dc:type
           rdf:resource="http://purl.org/dc/dcmitype/StillImage" /><dc:title></dc:title></cc:Work></rdf:RDF></metadata><defs
     id="defs6" /><sodipodi:namedview
     pagecolor="#ffffff"
     bordercolor="#666666"
     borderopacity="1"
     objecttolerance="10"
     gridtolerance="10"
     guidetolerance="10"
     inkscape:pageopacity="0"
     inkscape:pageshadow="2"
     inkscape:window-width="1535"
     inkscape:window-height="876"
     id="namedview4"
     showgrid="false"
     inkscape:zoom="0.52768072"
     inkscape:cx="496.80811"
     inkscape:cy="388.23759"
     inkscape:window-x="65"
     inkscape:window-y="24"
     inkscape:window-maximized="1"
     inkscape:current-layer="g10" /><g
     id="g10"
     inkscape:groupmode="layer"
     inkscape:label="ink_ext_XXXXXX"
     transform="matrix(1.25,0,0,-1.25,0,495)"><g
       id="g12"
       transform="scale(0.1,0.1)"><path
         d="m 6706.88,1427.55 63.9805,0 0,668.551 -63.9805,0 0,-668.551 z"
         style="fill:#000000;fill-opacity:1;fill-rule:nonzero;stroke:none"
         id="path14" /><path
         d="m 6706.88,1427.55 63.9805,0 0,668.551 -63.9805,0 0,-668.551 z"
         style="fill:none;stroke:#000000;stroke-opacity:1;stroke-width:8;stroke-linecap:butt;stroke-linejoin:miter;stroke-miterlimit:4;stroke-dasharray:none"
         id="path16" /><path
         d="m 1224.69,516.961 261.328,0 0,222.148 -261.328,0 0,-222.148 z"
         style="fill:#000000;fill-opacity:1;fill-rule:nonzero;stroke:none"
         id="path18" /><path
         d="m 1224.69,516.965 261.328,0 0,222.152 -261.328,0 0,-222.152 z"
         style="fill:none;stroke:#000000;stroke-opacity:1;stroke-width:6.53318;stroke-linecap:butt;stroke-linejoin:miter;stroke-miterlimit:4;stroke-dasharray:none"
         id="path20" /><path
         d="m 2079.34,2025.32 261.332,0 0,222.148 -261.332,0 0,-222.148 z"
         style="fill:#000000;fill-opacity:1;fill-rule:nonzero;stroke:none"
         id="path22" /><path
         d="m 2079.34,2025.32 261.332,0 0,222.148 -261.332,0 0,-222.148 z"
         style="fill:none;stroke:#000000;stroke-opacity:1;stroke-width:6.53318;stroke-linecap:butt;stroke-linejoin:miter;stroke-miterlimit:4;stroke-dasharray:none"
         id="path24" /><path
         d="m 1259.92,2993.17 261.328,0 0,222.109 -261.328,0 0,-222.109 z"
         style="fill:#000000;fill-opacity:1;fill-rule:nonzero;stroke:none"
         id="path26" /><path
         d="m 1259.92,2993.18 261.328,0 0,222.109 -261.328,0 0,-222.109 z"
         style="fill:none;stroke:#000000;stroke-opacity:1;stroke-width:6.53318;stroke-linecap:butt;stroke-linejoin:miter;stroke-miterlimit:4;stroke-dasharray:none"
         id="path28" /><path
         d="m 4553.16,3539.07 261.328,0 0,222.109 -261.328,0 0,-222.109 z"
         style="fill:#000000;fill-opacity:1;fill-rule:nonzero;stroke:none"
         id="path30" /><path
         d="m 4553.16,3539.07 261.328,0 0,222.113 -261.328,0 0,-222.113 z"
         style="fill:none;stroke:#000000;stroke-opacity:1;stroke-width:6.53318;stroke-linecap:butt;stroke-linejoin:miter;stroke-miterlimit:4;stroke-dasharray:none"
         id="path32" /><path
         d="m 2840.2,2993.17 261.332,0 0,222.109 -261.332,0 0,-222.109 z"
         style="fill:#000000;fill-opacity:1;fill-rule:nonzero;stroke:none"
         id="path34" /><path
         d="m 2840.2,2993.18 261.332,0 0,222.109 -261.332,0 0,-222.109 z"
         style="fill:none;stroke:#000000;stroke-opacity:1;stroke-width:6.53318;stroke-linecap:butt;stroke-linejoin:miter;stroke-miterlimit:4;stroke-dasharray:none"
         id="path36" /><path
         d="m 4963.52,1650.75 261.332,0 0,222.148 -261.332,0 0,-222.148 z"
         style="fill:#000000;fill-opacity:1;fill-rule:nonzero;stroke:none"
         id="path38" /><path
         d="m 4963.52,1650.75 261.332,0 0,222.148 -261.332,0 0,-222.148 z"
         style="fill:none;stroke:#000000;stroke-opacity:1;stroke-width:6.53318;stroke-linecap:butt;stroke-linejoin:miter;stroke-miterlimit:4;stroke-dasharray:none"
         id="path40" /><path
         d="m 6211.8,1650.75 261.328,0 0,222.148 -261.328,0 0,-222.148 z"
         style="fill:#000000;fill-opacity:1;fill-rule:nonzero;stroke:none"
         id="path42" /><path
         d="m 6211.8,1650.75 261.328,0 0,222.148 -261.328,0 0,-222.148 z"
         style="fill:none;stroke:#000000;stroke-opacity:1;stroke-width:6.53318;stroke-linecap:butt;stroke-linejoin:miter;stroke-miterlimit:4;stroke-dasharray:none"
         id="path44" /><path
         d="m 984.57,3104.23 2647.42,0"
         style="fill:none;stroke:#000000;stroke-opacity:1;stroke-width:28;stroke-linecap:butt;stroke-linejoin:miter;stroke-miterlimit:4;stroke-dasharray:none"
         id="path46" /><path
         d="m 2210,3554.27 0,-2901.133"
         style="fill:none;stroke:#000000;stroke-opacity:1;stroke-width:28;stroke-linecap:butt;stroke-linejoin:miter;stroke-miterlimit:4;stroke-dasharray:none"
         id="path48" /><path
         d="m 2263.75,3602.51 c 0,-31.52 -24.06,-57.07 -53.75,-57.07 -29.69,0 -53.75,25.55 -53.75,57.07 0,31.52 24.06,57.07 53.75,57.07 29.69,0 53.75,-25.55 53.75,-57.07 z"
         style="fill:#000000;fill-opacity:1;fill-rule:nonzero;stroke:none"
         id="path50" /><path
         d="m 2263.75,3602.5 c 0,-31.52 -24.06,-57.06 -53.75,-57.06 -29.69,0 -53.75,25.54 -53.75,57.06 0,31.54 24.06,57.07 53.75,57.07 29.69,0 53.75,-25.53 53.75,-57.07 z"
         style="fill:none;stroke:#000000;stroke-opacity:1;stroke-width:4.7838;stroke-linecap:butt;stroke-linejoin:miter;stroke-miterlimit:4;stroke-dasharray:none"
         id="path52" /><path
         d="m 2263.75,3104.23 c 0,-31.53 -24.06,-57.11 -53.75,-57.11 -29.69,0 -53.75,25.58 -53.75,57.11 0,31.52 24.06,57.07 53.75,57.07 29.69,0 53.75,-25.55 53.75,-57.07 z"
         style="fill:#000000;fill-opacity:1;fill-rule:nonzero;stroke:none"
         id="path54" /><path
         d="m 2263.75,3104.23 c 0,-31.52 -24.06,-57.11 -53.75,-57.11 -29.69,0 -53.75,25.59 -53.75,57.11 0,31.52 24.06,57.07 53.75,57.07 29.69,0 53.75,-25.55 53.75,-57.07 z"
         style="fill:none;stroke:#000000;stroke-opacity:1;stroke-width:4.7838;stroke-linecap:butt;stroke-linejoin:miter;stroke-miterlimit:4;stroke-dasharray:none"
         id="path56" /><path
         d="m 2263.75,2660.83 c 0,-31.52 -24.06,-57.11 -53.75,-57.11 -29.69,0 -53.75,25.59 -53.75,57.11 0,31.52 24.06,57.07 53.75,57.07 29.69,0 53.75,-25.55 53.75,-57.07 z"
         style="fill:#000000;fill-opacity:1;fill-rule:nonzero;stroke:none"
         id="path58" /><path
         d="m 2263.75,2660.82 c 0,-31.52 -24.06,-57.11 -53.75,-57.11 -29.69,0 -53.75,25.59 -53.75,57.11 0,31.54 24.06,57.07 53.75,57.07 29.69,0 53.75,-25.53 53.75,-57.07 z"
         style="fill:none;stroke:#000000;stroke-opacity:1;stroke-width:4.7838;stroke-linecap:butt;stroke-linejoin:miter;stroke-miterlimit:4;stroke-dasharray:none"
         id="path60" /><path
         d="m 978.051,628.055 4839.409,0"
         style="fill:none;stroke:#000000;stroke-opacity:1;stroke-width:28;stroke-linecap:butt;stroke-linejoin:miter;stroke-miterlimit:4;stroke-dasharray:none"
         id="path62" /><path
         d="m 2771.56,516.961 261.332,0 0,222.148 -261.332,0 0,-222.148 z"
         style="fill:#000000;fill-opacity:1;fill-rule:nonzero;stroke:none"
         id="path64" /><path
         d="m 2771.56,516.965 261.332,0 0,222.152 -261.332,0 0,-222.152 z"
         style="fill:none;stroke:#000000;stroke-opacity:1;stroke-width:6.53318;stroke-linecap:butt;stroke-linejoin:miter;stroke-miterlimit:4;stroke-dasharray:none"
         id="path66" /><path
         d="m 2079.34,1179.89 261.332,0 0,222.148 -261.332,0 0,-222.148 z"
         style="fill:#ffffff;fill-opacity:1;fill-rule:nonzero;stroke:none"
         id="path68" /><path
         d="m 2079.34,1179.89 261.332,0 0,222.152 -261.332,0 0,-222.152 z"
         style="fill:none;stroke:#000000;stroke-opacity:1;stroke-width:28;stroke-linecap:butt;stroke-linejoin:miter;stroke-miterlimit:4;stroke-dasharray:none"
         id="path70" /><path
         d="m 929.73,353.059 64.0195,0 0,3085.7 -64.0195,0 0,-3085.7 z"
         style="fill:#000000;fill-opacity:1;fill-rule:nonzero;stroke:none"
         id="path72" /><path
         d="m 929.73,353.055 64.0195,0 0,3085.7 -64.0195,0 0,-3085.7 z"
         style="fill:none;stroke:#000000;stroke-opacity:1;stroke-width:8;stroke-linecap:butt;stroke-linejoin:miter;stroke-miterlimit:4;stroke-dasharray:none"
         id="path74" /><path
         d="m 4185.74,3650.13 c 0,-31.53 -24.06,-57.11 -53.75,-57.11 -29.69,0 -53.75,25.58 -53.75,57.11 0,31.52 24.06,57.07 53.75,57.07 29.69,0 53.75,-25.55 53.75,-57.07 z"
         style="fill:#000000;fill-opacity:1;fill-rule:nonzero;stroke:none"
         id="path76" /><path
         d="m 4185.74,3650.13 c 0,-31.52 -24.06,-57.11 -53.75,-57.11 -29.69,0 -53.75,25.59 -53.75,57.11 0,31.51 24.06,57.07 53.75,57.07 29.69,0 53.75,-25.56 53.75,-57.07 z"
         style="fill:none;stroke:#000000;stroke-opacity:1;stroke-width:4.7838;stroke-linecap:butt;stroke-linejoin:miter;stroke-miterlimit:4;stroke-dasharray:none"
         id="path78" /><path
         d="m 3665.43,3104.23 c 0,-31.53 -24.06,-57.11 -53.75,-57.11 -29.69,0 -53.75,25.58 -53.75,57.11 0,31.52 24.06,57.07 53.75,57.07 29.69,0 53.75,-25.55 53.75,-57.07 z"
         style="fill:#000000;fill-opacity:1;fill-rule:nonzero;stroke:none"
         id="path80" /><path
         d="m 3665.43,3104.23 c 0,-31.52 -24.06,-57.11 -53.75,-57.11 -29.69,0 -53.75,25.59 -53.75,57.11 0,31.52 24.06,57.07 53.75,57.07 29.69,0 53.75,-25.55 53.75,-57.07 z"
         style="fill:none;stroke:#000000;stroke-opacity:1;stroke-width:4.7838;stroke-linecap:butt;stroke-linejoin:miter;stroke-miterlimit:4;stroke-dasharray:none"
         id="path82" /><path
         d="m 3668.32,2353.37 c 0,-31.56 -24.06,-57.11 -53.75,-57.11 -29.69,0 -53.75,25.55 -53.75,57.11 0,31.52 24.06,57.07 53.75,57.07 29.69,0 53.75,-25.55 53.75,-57.07 z"
         style="fill:#000000;fill-opacity:1;fill-rule:nonzero;stroke:none"
         id="path84" /><path
         d="m 3668.32,2353.37 c 0,-31.57 -24.06,-57.12 -53.75,-57.12 -29.69,0 -53.75,25.55 -53.75,57.12 0,31.52 24.06,57.07 53.75,57.07 29.69,0 53.75,-25.55 53.75,-57.07 z"
         style="fill:none;stroke:#000000;stroke-opacity:1;stroke-width:4.7838;stroke-linecap:butt;stroke-linejoin:miter;stroke-miterlimit:4;stroke-dasharray:none"
         id="path86" /><path
         d="m 6749.53,1761.84 -4551.8,0"
         style="fill:none;stroke:#000000;stroke-opacity:1;stroke-width:28;stroke-linecap:butt;stroke-linejoin:miter;stroke-miterlimit:4;stroke-dasharray:none"
         id="path88" /><path
         d="m 3182.3,1650.75 261.328,0 0,222.148 -261.328,0 0,-222.148 z"
         style="fill:#ffffff;fill-opacity:1;fill-rule:nonzero;stroke:none"
         id="path90" /><path
         d="m 3182.3,1650.75 261.328,0 0,222.148 -261.328,0 0,-222.148 z"
         style="fill:none;stroke:#000000;stroke-opacity:1;stroke-width:28;stroke-linecap:butt;stroke-linejoin:miter;stroke-miterlimit:4;stroke-dasharray:none"
         id="path92" /><path
         d="m 3989.77,516.961 261.332,0 0,222.148 -261.332,0 0,-222.148 z"
         style="fill:#000000;fill-opacity:1;fill-rule:nonzero;stroke:none"
         id="path94" /><path
         d="m 3989.77,516.965 261.332,0 0,222.152 -261.332,0 0,-222.152 z"
         style="fill:none;stroke:#000000;stroke-opacity:1;stroke-width:6.53318;stroke-linecap:butt;stroke-linejoin:miter;stroke-miterlimit:4;stroke-dasharray:none"
         id="path96" /><path
         d="m 5823.32,2088.53 0,-1455.436"
         style="fill:none;stroke:#000000;stroke-opacity:1;stroke-width:28;stroke-linecap:butt;stroke-linejoin:miter;stroke-miterlimit:4;stroke-dasharray:none"
         id="path98" /><path
         d="m 5692.66,1046.88 261.328,0 0,222.152 -261.328,0 0,-222.152 z"
         style="fill:#ffffff;fill-opacity:1;fill-rule:nonzero;stroke:none"
         id="path100" /><path
         d="m 5692.66,1046.89 261.328,0 0,222.148 -261.328,0 0,-222.148 z"
         style="fill:none;stroke:#000000;stroke-opacity:1;stroke-width:28;stroke-linecap:butt;stroke-linejoin:miter;stroke-miterlimit:4;stroke-dasharray:none"
         id="path102" /><path
         d="m 3611.95,3126.57 0,-716.41"
         style="fill:none;stroke:#000000;stroke-opacity:1;stroke-width:28;stroke-linecap:butt;stroke-linejoin:miter;stroke-miterlimit:4;stroke-dasharray:none"
         id="path104" /><path
         d="m 4444.73,2312.46 0,-552.76"
         style="fill:none;stroke:#000000;stroke-opacity:1;stroke-width:28;stroke-linecap:butt;stroke-linejoin:miter;stroke-miterlimit:4;stroke-dasharray:none"
         id="path106" /><path
         d="m 4502.77,2353.37 c 0,-31.56 -24.06,-57.11 -53.75,-57.11 -29.68,0 -53.75,25.55 -53.75,57.11 0,31.52 24.07,57.07 53.75,57.07 29.69,0 53.75,-25.55 53.75,-57.07 z"
         style="fill:#000000;fill-opacity:1;fill-rule:nonzero;stroke:none"
         id="path108" /><path
         d="m 4502.77,2353.37 c 0,-31.57 -24.06,-57.12 -53.75,-57.12 -29.68,0 -53.75,25.55 -53.75,57.12 0,31.52 24.07,57.07 53.75,57.07 29.69,0 53.75,-25.55 53.75,-57.07 z"
         style="fill:none;stroke:#000000;stroke-opacity:1;stroke-width:4.7838;stroke-linecap:butt;stroke-linejoin:miter;stroke-miterlimit:4;stroke-dasharray:none"
         id="path110" /><path
         d="m 5444.02,3650.13 c 0,-31.53 -24.06,-57.11 -53.75,-57.11 -29.68,0 -53.79,25.58 -53.79,57.11 0,31.52 24.11,57.07 53.79,57.07 29.69,0 53.75,-25.55 53.75,-57.07 z"
         style="fill:#000000;fill-opacity:1;fill-rule:nonzero;stroke:none"
         id="path112" /><path
         d="m 5444.02,3650.13 c 0,-31.52 -24.06,-57.11 -53.75,-57.11 -29.68,0 -53.79,25.59 -53.79,57.11 0,31.51 24.11,57.07 53.79,57.07 29.69,0 53.75,-25.56 53.75,-57.07 z"
         style="fill:none;stroke:#000000;stroke-opacity:1;stroke-width:4.7838;stroke-linecap:butt;stroke-linejoin:miter;stroke-miterlimit:4;stroke-dasharray:none"
         id="path114" /><path
         d="m 5444.02,3195.13 c 0,-31.53 -24.06,-57.07 -53.75,-57.07 -29.68,0 -53.79,25.54 -53.79,57.07 0,31.52 24.11,57.11 53.79,57.11 29.69,0 53.75,-25.59 53.75,-57.11 z"
         style="fill:#000000;fill-opacity:1;fill-rule:nonzero;stroke:none"
         id="path116" /><path
         d="m 5444.02,3195.13 c 0,-31.52 -24.06,-57.08 -53.75,-57.08 -29.68,0 -53.79,25.56 -53.79,57.08 0,31.51 24.11,57.1 53.79,57.1 29.69,0 53.75,-25.59 53.75,-57.1 z"
         style="fill:none;stroke:#000000;stroke-opacity:1;stroke-width:4.7838;stroke-linecap:butt;stroke-linejoin:miter;stroke-miterlimit:4;stroke-dasharray:none"
         id="path118" /><path
         d="m 6006.45,3650.13 c 0,-31.53 -24.07,-57.11 -53.75,-57.11 -29.69,0 -53.75,25.58 -53.75,57.11 0,31.52 24.06,57.07 53.75,57.07 29.68,0 53.75,-25.55 53.75,-57.07 z"
         style="fill:#000000;fill-opacity:1;fill-rule:nonzero;stroke:none"
         id="path120" /><path
         d="m 6006.45,3650.13 c 0,-31.52 -24.07,-57.11 -53.75,-57.11 -29.69,0 -53.75,25.59 -53.75,57.11 0,31.51 24.06,57.07 53.75,57.07 29.68,0 53.75,-25.56 53.75,-57.07 z"
         style="fill:none;stroke:#000000;stroke-opacity:1;stroke-width:4.7838;stroke-linecap:butt;stroke-linejoin:miter;stroke-miterlimit:4;stroke-dasharray:none"
         id="path122" /><path
         d="m 4158.87,3650.13 1805.31,0"
         style="fill:none;stroke:#000000;stroke-opacity:1;stroke-width:28;stroke-linecap:butt;stroke-linejoin:miter;stroke-miterlimit:4;stroke-dasharray:none"
         id="path124" /><path
         d="m 5390.27,3613.29 0,-437.81"
         style="fill:none;stroke:#000000;stroke-opacity:1;stroke-width:28;stroke-linecap:butt;stroke-linejoin:miter;stroke-miterlimit:4;stroke-dasharray:none"
         id="path126" /><path
         d="m 3613.83,2353.37 848.51,0"
         style="fill:none;stroke:#000000;stroke-opacity:1;stroke-width:28;stroke-linecap:butt;stroke-linejoin:miter;stroke-miterlimit:4;stroke-dasharray:none"
         id="path128" /><path
         d="m 3902.89,2242.27 261.328,0 0,222.152 -261.328,0 0,-222.152 z"
         style="fill:#ffffff;fill-opacity:1;fill-rule:nonzero;stroke:none"
         id="path130" /><path
         d="m 3902.89,2242.28 261.328,0 0,222.148 -261.328,0 0,-222.148 z"
         style="fill:none;stroke:#000000;stroke-opacity:1;stroke-width:28;stroke-linecap:butt;stroke-linejoin:miter;stroke-miterlimit:4;stroke-dasharray:none"
         id="path132" /><path
         d="m 3815.23,1761.85 c 0,-31.57 -24.06,-57.11 -53.75,-57.11 -29.72,0 -53.78,25.54 -53.78,57.11 0,31.52 24.06,57.07 53.78,57.07 29.69,0 53.75,-25.55 53.75,-57.07 z"
         style="fill:#000000;fill-opacity:1;fill-rule:nonzero;stroke:none"
         id="path134" /><path
         d="m 3815.23,1761.84 c 0,-31.55 -24.06,-57.11 -53.75,-57.11 -29.72,0 -53.78,25.56 -53.78,57.11 0,31.53 24.06,57.07 53.78,57.07 29.69,0 53.75,-25.54 53.75,-57.07 z"
         style="fill:none;stroke:#000000;stroke-opacity:1;stroke-width:4.7838;stroke-linecap:butt;stroke-linejoin:miter;stroke-miterlimit:4;stroke-dasharray:none"
         id="path136" /><path
         d="m 4483.95,1761.85 c 0,-31.57 -24.07,-57.11 -53.75,-57.11 -29.69,0 -53.75,25.54 -53.75,57.11 0,31.52 24.06,57.07 53.75,57.07 29.68,0 53.75,-25.55 53.75,-57.07 z"
         style="fill:#000000;fill-opacity:1;fill-rule:nonzero;stroke:none"
         id="path138" /><path
         d="m 4483.95,1761.84 c 0,-31.55 -24.07,-57.11 -53.75,-57.11 -29.69,0 -53.75,25.56 -53.75,57.11 0,31.53 24.06,57.07 53.75,57.07 29.68,0 53.75,-25.54 53.75,-57.07 z"
         style="fill:none;stroke:#000000;stroke-opacity:1;stroke-width:4.7838;stroke-linecap:butt;stroke-linejoin:miter;stroke-miterlimit:4;stroke-dasharray:none"
         id="path140" /><path
         d="m 2263.75,1761.85 c 0,-31.57 -24.06,-57.11 -53.75,-57.11 -29.69,0 -53.75,25.54 -53.75,57.11 0,31.52 24.06,57.07 53.75,57.07 29.69,0 53.75,-25.55 53.75,-57.07 z"
         style="fill:#000000;fill-opacity:1;fill-rule:nonzero;stroke:none"
         id="path142" /><path
         d="m 2263.75,1761.84 c 0,-31.55 -24.06,-57.11 -53.75,-57.11 -29.69,0 -53.75,25.56 -53.75,57.11 0,31.53 24.06,57.07 53.75,57.07 29.69,0 53.75,-25.54 53.75,-57.07 z"
         style="fill:none;stroke:#000000;stroke-opacity:1;stroke-width:4.7838;stroke-linecap:butt;stroke-linejoin:miter;stroke-miterlimit:4;stroke-dasharray:none"
         id="path144" /><path
         d="m 2784.92,1761.85 c 0,-31.57 -24.1,-57.11 -53.79,-57.11 -29.68,0 -53.75,25.54 -53.75,57.11 0,31.52 24.07,57.07 53.75,57.07 29.69,0 53.79,-25.55 53.79,-57.07 z"
         style="fill:#000000;fill-opacity:1;fill-rule:nonzero;stroke:none"
         id="path146" /><path
         d="m 2784.92,1761.84 c 0,-31.55 -24.1,-57.11 -53.79,-57.11 -29.68,0 -53.75,25.56 -53.75,57.11 0,31.53 24.07,57.07 53.75,57.07 29.69,0 53.79,-25.54 53.79,-57.07 z"
         style="fill:none;stroke:#000000;stroke-opacity:1;stroke-width:4.7838;stroke-linecap:butt;stroke-linejoin:miter;stroke-miterlimit:4;stroke-dasharray:none"
         id="path148" /><path
         d="m 2263.75,628.059 c 0,-31.528 -24.06,-57.11 -53.75,-57.11 -29.69,0 -53.75,25.582 -53.75,57.11 0,31.519 24.06,57.07 53.75,57.07 29.69,0 53.75,-25.551 53.75,-57.07 z"
         style="fill:#000000;fill-opacity:1;fill-rule:nonzero;stroke:none"
         id="path150" /><path
         d="m 2263.75,628.055 c 0,-31.52 -24.06,-57.11 -53.75,-57.11 -29.69,0 -53.75,25.59 -53.75,57.11 0,31.519 24.06,57.07 53.75,57.07 29.69,0 53.75,-25.551 53.75,-57.07 z"
         style="fill:none;stroke:#000000;stroke-opacity:1;stroke-width:4.7838;stroke-linecap:butt;stroke-linejoin:miter;stroke-miterlimit:4;stroke-dasharray:none"
         id="path152" /><path
         d="m 1850.78,628.059 c 0,-31.528 -24.06,-57.11 -53.75,-57.11 -29.69,0 -53.79,25.582 -53.79,57.11 0,31.519 24.1,57.07 53.79,57.07 29.69,0 53.75,-25.551 53.75,-57.07 z"
         style="fill:#000000;fill-opacity:1;fill-rule:nonzero;stroke:none"
         id="path154" /><path
         d="m 1850.78,628.055 c 0,-31.52 -24.06,-57.11 -53.75,-57.11 -29.69,0 -53.79,25.59 -53.79,57.11 0,31.519 24.1,57.07 53.79,57.07 29.69,0 53.75,-25.551 53.75,-57.07 z"
         style="fill:none;stroke:#000000;stroke-opacity:1;stroke-width:4.7838;stroke-linecap:butt;stroke-linejoin:miter;stroke-miterlimit:4;stroke-dasharray:none"
         id="path156" /><path
         d="m 3537.7,628.059 c 0,-31.528 -24.07,-57.11 -53.79,-57.11 -29.69,0 -53.75,25.582 -53.75,57.11 0,31.519 24.06,57.07 53.75,57.07 29.72,0 53.79,-25.551 53.79,-57.07 z"
         style="fill:#000000;fill-opacity:1;fill-rule:nonzero;stroke:none"
         id="path158" /><path
         d="m 3537.7,628.055 c 0,-31.52 -24.07,-57.11 -53.79,-57.11 -29.69,0 -53.75,25.59 -53.75,57.11 0,31.519 24.06,57.07 53.75,57.07 29.72,0 53.79,-25.551 53.79,-57.07 z"
         style="fill:none;stroke:#000000;stroke-opacity:1;stroke-width:4.7838;stroke-linecap:butt;stroke-linejoin:miter;stroke-miterlimit:4;stroke-dasharray:none"
         id="path160" /><path
         d="m 4568.48,628.059 c 0,-31.528 -24.07,-57.11 -53.75,-57.11 -29.69,0 -53.75,25.582 -53.75,57.11 0,31.519 24.06,57.07 53.75,57.07 29.68,0 53.75,-25.551 53.75,-57.07 z"
         style="fill:#000000;fill-opacity:1;fill-rule:nonzero;stroke:none"
         id="path162" /><path
         d="m 4568.48,628.055 c 0,-31.52 -24.07,-57.11 -53.75,-57.11 -29.69,0 -53.75,25.59 -53.75,57.11 0,31.519 24.06,57.07 53.75,57.07 29.68,0 53.75,-25.551 53.75,-57.07 z"
         style="fill:none;stroke:#000000;stroke-opacity:1;stroke-width:4.7838;stroke-linecap:butt;stroke-linejoin:miter;stroke-miterlimit:4;stroke-dasharray:none"
         id="path164" /><path
         d="m 5222.77,628.059 c 0,-31.528 -24.06,-57.11 -53.75,-57.11 -29.68,0 -53.75,25.582 -53.75,57.11 0,31.519 24.07,57.07 53.75,57.07 29.69,0 53.75,-25.551 53.75,-57.07 z"
         style="fill:#000000;fill-opacity:1;fill-rule:nonzero;stroke:none"
         id="path166" /><path
         d="m 5222.77,628.055 c 0,-31.52 -24.06,-57.11 -53.75,-57.11 -29.68,0 -53.75,25.59 -53.75,57.11 0,31.519 24.07,57.07 53.75,57.07 29.69,0 53.75,-25.551 53.75,-57.07 z"
         style="fill:none;stroke:#000000;stroke-opacity:1;stroke-width:4.7838;stroke-linecap:butt;stroke-linejoin:miter;stroke-miterlimit:4;stroke-dasharray:none"
         id="path168" /><path
         d="m 5877.07,628.059 c 0,-31.528 -24.06,-57.11 -53.75,-57.11 -29.73,0 -53.79,25.582 -53.79,57.11 0,31.519 24.06,57.07 53.79,57.07 29.69,0 53.75,-25.551 53.75,-57.07 z"
         style="fill:#000000;fill-opacity:1;fill-rule:nonzero;stroke:none"
         id="path170" /><path
         d="m 5877.07,628.055 c 0,-31.52 -24.06,-57.11 -53.75,-57.11 -29.73,0 -53.79,25.59 -53.79,57.11 0,31.519 24.06,57.07 53.79,57.07 29.69,0 53.75,-25.551 53.75,-57.07 z"
         style="fill:none;stroke:#000000;stroke-opacity:1;stroke-width:4.7838;stroke-linecap:butt;stroke-linejoin:miter;stroke-miterlimit:4;stroke-dasharray:none"
         id="path172" /><path
         d="m 3537.7,1032 c 0,-31.52 -24.07,-57.109 -53.79,-57.109 -29.69,0 -53.75,25.589 -53.75,57.109 0,31.52 24.06,57.07 53.75,57.07 29.72,0 53.79,-25.55 53.79,-57.07 z"
         style="fill:#000000;fill-opacity:1;fill-rule:nonzero;stroke:none"
         id="path174" /><path
         d="m 3537.7,1032 c 0,-31.52 -24.07,-57.105 -53.79,-57.105 -29.69,0 -53.75,25.585 -53.75,57.105 0,31.53 24.06,57.07 53.75,57.07 29.72,0 53.79,-25.54 53.79,-57.07 z"
         style="fill:none;stroke:#000000;stroke-opacity:1;stroke-width:4.7838;stroke-linecap:butt;stroke-linejoin:miter;stroke-miterlimit:4;stroke-dasharray:none"
         id="path176" /><path
         d="m 5877.07,1748.13 c 0,-31.52 -24.06,-57.07 -53.75,-57.07 -29.73,0 -53.79,25.55 -53.79,57.07 0,31.53 24.06,57.07 53.79,57.07 29.69,0 53.75,-25.54 53.75,-57.07 z"
         style="fill:#000000;fill-opacity:1;fill-rule:nonzero;stroke:none"
         id="path178" /><path
         d="m 5877.07,1748.14 c 0,-31.52 -24.06,-57.07 -53.75,-57.07 -29.73,0 -53.79,25.55 -53.79,57.07 0,31.52 24.06,57.07 53.79,57.07 29.69,0 53.75,-25.55 53.75,-57.07 z"
         style="fill:none;stroke:#000000;stroke-opacity:1;stroke-width:4.7838;stroke-linecap:butt;stroke-linejoin:miter;stroke-miterlimit:4;stroke-dasharray:none"
         id="path180" /><path
         d="m 5877.07,2103.72 c 0,-31.52 -24.06,-57.11 -53.75,-57.11 -29.73,0 -53.79,25.59 -53.79,57.11 0,31.52 24.06,57.07 53.79,57.07 29.69,0 53.75,-25.55 53.75,-57.07 z"
         style="fill:#000000;fill-opacity:1;fill-rule:nonzero;stroke:none"
         id="path182" /><path
         d="m 5877.07,2103.71 c 0,-31.51 -24.06,-57.09 -53.75,-57.09 -29.73,0 -53.79,25.58 -53.79,57.09 0,31.54 24.06,57.08 53.79,57.08 29.69,0 53.75,-25.54 53.75,-57.08 z"
         style="fill:none;stroke:#000000;stroke-opacity:1;stroke-width:4.7838;stroke-linecap:butt;stroke-linejoin:miter;stroke-miterlimit:4;stroke-dasharray:none"
         id="path184" /><path
         d="m 3483.91,1048.18 0,-395.164"
         style="fill:none;stroke:#000000;stroke-opacity:1;stroke-width:28;stroke-linecap:butt;stroke-linejoin:miter;stroke-miterlimit:4;stroke-dasharray:none"
         id="path186" /><path
         d="m 627.578,2729.39 c 0,-111.68 -90.508,-202.19 -202.187,-202.19 -111.68,0 -202.231,90.51 -202.231,202.19 0,111.68 90.551,202.23 202.231,202.23 111.679,0 202.187,-90.55 202.187,-202.23 z"
         style="fill:none;stroke:#000000;stroke-opacity:1;stroke-width:41.2854;stroke-linecap:butt;stroke-linejoin:miter;stroke-miterlimit:4;stroke-dasharray:none"
         id="path188" /><path
         d="m 425,2732.55 c 0,-111.68 -90.512,-202.23 -202.191,-202.23 -111.68,0 -202.2192,90.55 -202.2192,202.23 0,111.68 90.5392,202.18 202.2192,202.18 111.679,0 202.191,-90.5 202.191,-202.18 z"
         style="fill:none;stroke:#000000;stroke-opacity:1;stroke-width:41.2854;stroke-linecap:butt;stroke-linejoin:miter;stroke-miterlimit:4;stroke-dasharray:none"
         id="path190" /><path
         d="m 627.578,1053.53 c 0,-111.686 -90.508,-202.194 -202.187,-202.194 -111.68,0 -202.231,90.508 -202.231,202.194 0,111.68 90.551,202.22 202.231,202.22 111.679,0 202.187,-90.54 202.187,-202.22 z"
         style="fill:none;stroke:#000000;stroke-opacity:1;stroke-width:41.2854;stroke-linecap:butt;stroke-linejoin:miter;stroke-miterlimit:4;stroke-dasharray:none"
         id="path192" /><path
         d="m 425,1056.69 c 0,-111.686 -90.512,-202.225 -202.191,-202.225 -111.68,0 -202.2192,90.539 -202.2192,202.225 0,111.68 90.5392,202.19 202.2192,202.19 111.679,0 202.191,-90.51 202.191,-202.19 z"
         style="fill:none;stroke:#000000;stroke-opacity:1;stroke-width:41.2854;stroke-linecap:butt;stroke-linejoin:miter;stroke-miterlimit:4;stroke-dasharray:none"
         id="path194" /><path
         d="m 632.23,2721.77 347.461,0"
         style="fill:none;stroke:#000000;stroke-opacity:1;stroke-width:28;stroke-linecap:butt;stroke-linejoin:miter;stroke-miterlimit:4;stroke-dasharray:none"
         id="path196" /><path
         d="m 617.73,1055.13 347.469,0"
         style="fill:none;stroke:#000000;stroke-opacity:1;stroke-width:28;stroke-linecap:butt;stroke-linejoin:miter;stroke-miterlimit:4;stroke-dasharray:none"
         id="path198" /><path
         d="m 7105.31,1763.41 c 0,111.68 90.51,202.18 202.19,202.18 111.68,0 202.23,-90.5 202.23,-202.18 0,-111.68 -90.55,-202.22 -202.23,-202.22 -111.68,0 -202.19,90.54 -202.19,202.22 z"
         style="fill:none;stroke:#000000;stroke-opacity:1;stroke-width:41.2854;stroke-linecap:butt;stroke-linejoin:miter;stroke-miterlimit:4;stroke-dasharray:none"
         id="path200" /><path
         d="m 7307.85,1760.25 c 0,111.68 90.55,202.21 202.23,202.21 111.68,0 202.22,-90.53 202.22,-202.21 0,-111.68 -90.54,-202.2 -202.22,-202.2 -111.68,0 -202.23,90.52 -202.23,202.2 z"
         style="fill:none;stroke:#000000;stroke-opacity:1;stroke-width:41.2854;stroke-linecap:butt;stroke-linejoin:miter;stroke-miterlimit:4;stroke-dasharray:none"
         id="path202" /><path
         d="m 7100.66,1761.84 -347.46,0"
         style="fill:none;stroke:#000000;stroke-opacity:1;stroke-width:28;stroke-linecap:butt;stroke-linejoin:miter;stroke-miterlimit:4;stroke-dasharray:none"
         id="path204" /><g
         id="g206"
         transform="scale(10,10)"><text
           transform="matrix(1,0,0,-1,6.85195,348.62)"
           id="text208"><tspan
             style="fill:#000000;fill-opacity:1;fill-rule:nonzero;stroke:none;font-family:DejaVu Serif;font-variant:normal;font-weight:bold;font-size:25.6;writing-mode:lr;-inkscape-font-specification:DejaVuSerif-Bold"
             x="0 18.4832 37.9904 46.8992"
             y="0"
             sodipodi:role="line"
             id="tspan210">SE 1</tspan></text>
<text
           transform="matrix(1,0,0,-1,79.99495,1.763)"
           id="text212"><tspan
             style="fill:#000000;fill-opacity:1;fill-rule:nonzero;stroke:none;font-family:DejaVu Serif;font-variant:normal;font-weight:normal;font-size:25.6;writing-mode:lr;-inkscape-font-specification:DejaVuSerif"
             x="0 17.536"
             y="0"
             sodipodi:role="line"
             id="tspan214">S1</tspan></text>
</g><path
         d="m 824.02,26.8438 0,43.121 14.691,-0.1484 c 0.391,-14.3789 4.57,-25.082 12.5,-32.0312 7.891,-6.8789 19.918,-10.3204 36.09,-10.3204 15.078,0 26.609,2.9727 34.539,8.9102 7.89,6.0195 11.871,14.7695 11.871,26.25 0,9.0625 -2.422,16.0195 -7.191,20.9414 -4.801,5 -14.918,9.7578 -30.309,14.3711 l -25,7.5005 c -18.121,5.507 -30.902,12.386 -38.281,20.628 -7.418,8.2 -11.09,19.45 -11.09,33.75 0,16.008 5.66,28.469 17.031,37.34 11.438,8.949 27.5,13.438 48.117,13.438 8.832,0 18.481,-1.02 28.91,-2.969 10.512,-1.871 21.723,-4.609 33.59,-8.121 l 0,-40.469 -14.367,0 c -1.371,13.43 -5.781,23.121 -13.281,29.059 -7.5,5.941 -18.91,8.91 -34.219,8.91 -13.441,0 -23.672,-2.777 -30.633,-8.289 -6.988,-5.43 -10.468,-13.348 -10.468,-23.75 0,-9.059 2.582,-16.211 7.82,-21.399 5.308,-5.121 16.441,-10.16 33.43,-15.16 l 23.601,-7.031 c 17.18,-5.23 29.41,-11.828 36.719,-19.84 7.262,-7.9295 10.93,-18.5975 10.93,-32.0311 0,-18.4375 -5.899,-32.3476 -17.649,-41.7187 -11.801,-9.3008 -29.301,-13.9102 -52.5,-13.9102 -10.43,0 -21.062,1.0898 -31.883,3.2813 -10.738,2.0703 -21.718,5.3085 -32.968,9.6875 z m 188.28,-9.2188 0,13.4414 33.13,0 0,157.6486 -38.28,-24.68 0,16.559 46.25,30 17.5,0 0,-179.5276 32.97,0 0,-13.4414 -91.57,0 z"
         style="fill:none;stroke:#000000;stroke-opacity:1;stroke-width:8;stroke-linecap:butt;stroke-linejoin:miter;stroke-miterlimit:4;stroke-dasharray:none"
         id="path216" /><g
         id="g218"
         transform="scale(10,10)"><text
           transform="matrix(1,0,0,-1,133.143,325.763)"
           id="text220"><tspan
             style="fill:#000000;fill-opacity:1;fill-rule:nonzero;stroke:none;font-family:DejaVu Serif;font-variant:normal;font-weight:normal;font-size:19.2;writing-mode:lr;-inkscape-font-specification:DejaVuSerif"
             x="0"
             y="0"
             id="tspan222">1</tspan></text>
</g><path
         d="m 1358.48,3257.63 0,9.83 24.06,0 0,115.17 -27.97,-17.97 0,12.03 33.91,22.02 12.81,0 0,-131.25 24.06,0 0,-9.83 -66.87,0 z"
         style="fill:none;stroke:#000000;stroke-opacity:1;stroke-width:8;stroke-linecap:butt;stroke-linejoin:miter;stroke-miterlimit:4;stroke-dasharray:none"
         id="path224" /><g
         id="g226"
         transform="scale(10,10)"><text
           transform="matrix(1,0,0,-1,185.138,206.515)"
           id="text228"><tspan
             style="fill:#000000;fill-opacity:1;fill-rule:nonzero;stroke:none;font-family:DejaVu Serif;font-variant:normal;font-weight:normal;font-size:19.2;writing-mode:lr;-inkscape-font-specification:DejaVuSerif"
             x="0"
             y="0"
             id="tspan230">2</tspan></text>
</g><path
         d="m 1875.74,2170.64 -10.47,0 0,24.68 c 6.64,3.52 13.32,6.25 20,8.13 6.64,1.87 13.21,2.8 19.69,2.8 14.45,0 25.86,-3.54 34.22,-10.61 8.32,-7 12.5,-16.5 12.5,-28.44 0,-13.56 -9.49,-29.76 -28.44,-48.59 -1.48,-1.49 -2.58,-2.58 -3.28,-3.29 l -35,-35 57.81,0 0,17.18 10.78,0 0,-32.34 -89.21,0 0,10.16 42.03,41.88 c 9.25,9.26 15.86,17.74 19.84,25.46 3.95,7.82 5.94,15.98 5.94,24.54 0,9.37 -2.46,16.64 -7.35,21.87 -4.92,5.32 -11.64,7.98 -20.15,7.98 -8.75,0 -15.59,-2.27 -20.47,-6.73 -4.8,-4.37 -7.62,-10.93 -8.44,-19.68 z"
         style="fill:none;stroke:#000000;stroke-opacity:1;stroke-width:8;stroke-linecap:butt;stroke-linejoin:miter;stroke-miterlimit:4;stroke-dasharray:none"
         id="path232" /><g
         id="g234"
         transform="scale(10,10)"><text
           transform="matrix(1,0,0,-1,290.961,326.334)"
           id="text236"><tspan
             style="fill:#000000;fill-opacity:1;fill-rule:nonzero;stroke:none;font-family:DejaVu Serif;font-variant:normal;font-weight:normal;font-size:19.2;writing-mode:lr;-inkscape-font-specification:DejaVuSerif"
             x="0"
             y="0"
             id="tspan238">3</tspan></text>
</g><path
         d="m 2928.05,3395.98 c 7.26,2.71 14.22,4.77 20.78,6.25 6.64,1.46 12.89,2.2 18.75,2.2 13.51,0 24.1,-2.97 31.72,-8.91 7.58,-5.86 11.4,-13.9 11.4,-24.22 0,-8.43 -2.65,-15.48 -7.97,-21.09 -5.23,-5.55 -12.61,-9.3 -22.18,-11.25 11.33,-1.68 20.15,-5.87 26.4,-12.5 6.25,-6.57 9.38,-15.16 9.38,-25.78 0,-12.93 -4.34,-22.81 -12.97,-29.7 -8.67,-6.86 -21.17,-10.3 -37.5,-10.3 -7.31,0 -14.38,0.78 -21.25,2.34 -6.88,1.44 -13.71,3.78 -20.47,7.03 l 0,26.88 10.31,0 c 0.63,-8.99 3.6,-15.74 8.91,-20.31 5.39,-4.5 13.01,-6.73 22.81,-6.73 9.45,0 16.92,2.7 22.35,8.13 5.5,5.51 8.28,13.01 8.28,22.5 0,10.94 -2.82,19.14 -8.44,24.69 -5.63,5.61 -13.87,8.43 -24.69,8.43 l -8.9,0 0,9.54 4.68,0 c 10.82,0 18.95,2.21 24.38,6.71 5.39,4.45 8.12,11.18 8.12,20.16 0,8.13 -2.26,14.29 -6.72,18.59 -4.49,4.38 -10.89,6.57 -19.21,6.57 -8.36,0 -14.85,-2 -19.54,-5.94 -4.6,-3.98 -7.26,-9.84 -7.96,-17.65 l -10.47,0 0,24.36 z"
         style="fill:none;stroke:#000000;stroke-opacity:1;stroke-width:8;stroke-linecap:butt;stroke-linejoin:miter;stroke-miterlimit:4;stroke-dasharray:none"
         id="path240" /><g
         id="g242"
         transform="scale(10,10)"><text
           transform="matrix(1,0,0,-1,129.615,80.048)"
           id="text244"><tspan
             style="fill:#000000;fill-opacity:1;fill-rule:nonzero;stroke:none;font-family:DejaVu Serif;font-variant:normal;font-weight:normal;font-size:19.2;writing-mode:lr;-inkscape-font-specification:DejaVuSerif"
             x="0"
             y="0"
             id="tspan246">4</tspan></text>
</g><path
         d="m 1362.58,847.355 0,73.75 -47.35,-73.75 47.35,0 z m 40.78,-46.878 -63.13,0 0,9.847 22.35,0 0,27.18 -60.63,0 0,10.16 60.78,93.91 18.29,0 0,-94.219 26.56,0 0,-9.851 -26.56,0 0,-27.18 22.34,0 0,-9.847 z"
         style="fill:none;stroke:#000000;stroke-opacity:1;stroke-width:8;stroke-linecap:butt;stroke-linejoin:miter;stroke-miterlimit:4;stroke-dasharray:none"
         id="path248" /><g
         id="g250"
         transform="scale(10,10)"><text
           transform="matrix(1,0,0,-1,462.198,380.62)"
           id="text252"><tspan
             style="fill:#000000;fill-opacity:1;fill-rule:nonzero;stroke:none;font-family:DejaVu Serif;font-variant:normal;font-weight:normal;font-size:19.2;writing-mode:lr;-inkscape-font-specification:DejaVuSerif"
             x="0"
             y="0"
             id="tspan254">5</tspan></text>
</g><path
         d="m 4717.62,3944.62 0,-15.16 -63.6,0 0,-39.68 c 3.21,2.18 6.96,3.83 11.25,5 4.38,1.13 9.22,1.72 14.53,1.72 15,0 26.8,-4.18 35.47,-12.5 8.64,-8.25 12.97,-19.54 12.97,-33.91 0,-14.7 -4.37,-26.18 -13.12,-34.38 -8.75,-8.12 -21.06,-12.18 -36.88,-12.18 -6.36,0 -12.93,0.77 -19.69,2.34 -6.67,1.45 -13.51,3.79 -20.46,7.02 l 0,26.89 10.46,0 c 0.63,-8.75 3.44,-15.48 8.44,-20.16 5.08,-4.62 12.19,-6.87 21.25,-6.87 9.77,0 17.27,3.16 22.5,9.53 5.31,6.43 7.97,15.7 7.97,27.81 0,11.96 -2.66,21.12 -7.97,27.5 -5.23,6.45 -12.73,9.69 -22.5,9.69 -5.62,0 -10.58,-1.03 -14.84,-2.98 -4.18,-1.98 -7.89,-5.07 -11.1,-9.21 l -7.96,0 0,69.53 73.28,0 z"
         style="fill:none;stroke:#000000;stroke-opacity:1;stroke-width:8;stroke-linecap:butt;stroke-linejoin:miter;stroke-miterlimit:4;stroke-dasharray:none"
         id="path256" /><g
         id="g258"
         transform="scale(10,10)"><text
           transform="matrix(1,0,0,-1,397.209,251.477)"
           id="text260"><tspan
             style="fill:#000000;fill-opacity:1;fill-rule:nonzero;stroke:none;font-family:DejaVu Serif;font-variant:normal;font-weight:normal;font-size:19.2;writing-mode:lr;-inkscape-font-specification:DejaVuSerif"
             x="0"
             y="0"
             id="tspan262">6</tspan></text>
</g><path
         d="m 4034.3,2521.34 c 8.75,0 15.47,3.16 20.15,9.53 4.69,6.33 7.03,15.54 7.03,27.66 0,11.95 -2.34,21.13 -7.03,27.5 -4.68,6.43 -11.4,9.68 -20.15,9.68 -8.87,0 -15.63,-3.12 -20.32,-9.37 -4.6,-6.18 -6.87,-15.09 -6.87,-26.72 0,-12.3 2.34,-21.8 7.03,-28.43 4.69,-6.57 11.41,-9.85 20.16,-9.85 z m -30.32,69.69 c 4.26,4.68 9.07,8.16 14.38,10.47 5.31,2.25 11.29,3.44 17.97,3.44 13.75,0 24.61,-4.19 32.65,-12.5 8.01,-8.37 12.04,-19.65 12.04,-33.91 0,-14.07 -4.34,-25.32 -12.97,-33.75 -8.67,-8.44 -20.16,-12.66 -34.53,-12.66 -15.63,0 -27.66,5.82 -36.1,17.5 -8.44,11.63 -12.65,28.27 -12.65,49.84 0,24.25 5,43.04 15,56.41 10,13.32 24.06,20 42.18,20 4.77,0 9.89,-0.48 15.32,-1.41 5.39,-0.93 10.93,-2.34 16.56,-4.21 l 0,-22.81 -10.47,0 c -0.74,6.25 -3.13,10.97 -7.19,14.2 -4.06,3.32 -9.49,5 -16.25,5 -11.99,0 -20.94,-4.59 -26.87,-13.75 -5.86,-9.05 -8.87,-23.03 -9.07,-41.86 z"
         style="fill:none;stroke:#000000;stroke-opacity:1;stroke-width:8;stroke-linecap:butt;stroke-linejoin:miter;stroke-miterlimit:4;stroke-dasharray:none"
         id="path264" /><g
         id="g266"
         transform="scale(10,10)"><text
           transform="matrix(1,0,0,-1,325.075,192.62)"
           id="text268"><tspan
             style="fill:#000000;fill-opacity:1;fill-rule:nonzero;stroke:none;font-family:DejaVu Serif;font-variant:normal;font-weight:normal;font-size:19.2;writing-mode:lr;-inkscape-font-specification:DejaVuSerif"
             x="0"
             y="0"
             id="tspan270">7</tspan></text>
</g><path
         d="m 3357.93,2055.25 -54.22,-129.06 -13.75,0 51.56,123.27 -63.9,0 0,-17.02 -10.94,0 0,32.18 91.25,0 0,-9.37 z"
         style="fill:none;stroke:#000000;stroke-opacity:1;stroke-width:8;stroke-linecap:butt;stroke-linejoin:miter;stroke-miterlimit:4;stroke-dasharray:none"
         id="path272" /><g
         id="g274"
         transform="scale(10,10)"><text
           transform="matrix(1,0,0,-1,503.314,191.477)"
           id="text276"><tspan
             style="fill:#000000;fill-opacity:1;fill-rule:nonzero;stroke:none;font-family:DejaVu Serif;font-variant:normal;font-weight:normal;font-size:19.2;writing-mode:lr;-inkscape-font-specification:DejaVuSerif"
             x="0"
             y="0"
             id="tspan278">8</tspan></text>
</g><path
         d="m 5121.56,1952.59 c 0,9.87 -2.46,17.54 -7.34,22.96 -4.92,5.52 -11.8,8.29 -20.63,8.29 -8.98,0 -15.89,-2.77 -20.78,-8.29 -4.92,-5.42 -7.34,-13.09 -7.34,-22.96 0,-9.93 2.42,-17.63 7.34,-23.13 4.89,-5.42 11.8,-8.12 20.78,-8.12 8.83,0 15.71,2.7 20.63,8.12 4.88,5.5 7.34,13.2 7.34,23.13 z m -3.75,67.35 c 0,8.31 -2.15,14.84 -6.4,19.52 -4.3,4.77 -10.24,7.18 -17.82,7.18 -7.61,0 -13.59,-2.41 -17.97,-7.18 -4.29,-4.68 -6.4,-11.21 -6.4,-19.52 0,-8.56 2.11,-15.16 6.4,-19.85 4.38,-4.7 10.36,-7.04 17.97,-7.04 7.58,0 13.52,2.34 17.82,7.04 4.25,4.69 6.4,11.29 6.4,19.85 z m -10,-31.41 c 10.51,-1.48 18.67,-5.39 24.53,-11.73 5.94,-6.25 8.91,-14.34 8.91,-24.21 0,-12.93 -4.14,-22.93 -12.34,-30 -8.25,-7 -20,-10.47 -35.32,-10.47 -15.31,0 -27.14,3.47 -35.47,10.47 -8.24,7.07 -12.34,17.07 -12.34,30 0,9.87 2.89,17.96 8.75,24.21 5.94,6.34 14.22,10.25 24.85,11.73 -9.38,1.63 -16.57,5.18 -21.57,10.61 -5,5.41 -7.5,12.36 -7.5,20.8 0,11.13 3.83,19.88 11.57,26.25 7.69,6.44 18.28,9.68 31.71,9.68 13.32,0 23.83,-3.24 31.57,-9.68 7.69,-6.37 11.56,-15.12 11.56,-26.25 0,-8.44 -2.5,-15.39 -7.5,-20.8 -5,-5.43 -12.15,-8.98 -21.41,-10.61 z"
         style="fill:none;stroke:#000000;stroke-opacity:1;stroke-width:8;stroke-linecap:butt;stroke-linejoin:miter;stroke-miterlimit:4;stroke-dasharray:none"
         id="path280" /><g
         id="g282"
         transform="scale(10,10)"><text
           transform="matrix(1,0,0,-1,625.709,190.334)"
           id="text284"><tspan
             style="fill:#000000;fill-opacity:1;fill-rule:nonzero;stroke:none;font-family:DejaVu Serif;font-variant:normal;font-weight:normal;font-size:19.2;writing-mode:lr;-inkscape-font-specification:DejaVuSerif"
             x="0"
             y="0"
             id="tspan286">9</tspan></text>
</g><path
         d="m 6346.02,1965.37 c -4.18,-4.62 -8.99,-8.05 -14.38,-10.32 -5.31,-2.3 -11.37,-3.43 -18.12,-3.43 -13.75,0 -24.61,4.09 -32.5,12.34 -7.93,8.32 -11.88,19.68 -11.88,34.06 0,13.94 4.26,25.16 12.81,33.6 8.64,8.51 20.2,12.81 34.69,12.81 15.63,0 27.58,-5.86 35.94,-17.5 8.44,-11.68 12.65,-28.36 12.65,-50 0,-24.3 -5,-43.09 -15,-56.41 -9.92,-13.24 -23.9,-19.84 -42.03,-19.84 -4.92,0 -10.08,0.46 -15.47,1.39 -5.31,0.95 -10.78,2.27 -16.4,4.07 l 0,23.13 10.31,0 c 0.82,-6.25 3.2,-11.06 7.19,-14.38 4.06,-3.35 9.45,-5 16.25,-5 11.95,0 20.86,4.54 26.72,13.59 5.93,9.07 8.98,23.02 9.22,41.89 z m -30.16,69.84 c -8.75,0 -15.47,-3.25 -20.16,-9.69 -4.68,-6.38 -7.03,-15.56 -7.03,-27.5 0,-12.11 2.35,-21.38 7.03,-27.81 4.69,-6.37 11.41,-9.53 20.16,-9.53 8.75,0 15.47,3.03 20.16,9.21 4.68,6.25 7.03,15.24 7.03,27.04 0,12.25 -2.35,21.71 -7.03,28.28 -4.69,6.63 -11.41,10 -20.16,10 z"
         style="fill:none;stroke:#000000;stroke-opacity:1;stroke-width:8;stroke-linecap:butt;stroke-linejoin:miter;stroke-miterlimit:4;stroke-dasharray:none"
         id="path288" /><g
         id="g290"
         transform="scale(10,10)"><text
           transform="matrix(1,0,0,-1,170.852,122.108)"
           id="text292"><tspan
             style="fill:#000000;fill-opacity:1;fill-rule:nonzero;stroke:none;font-family:DejaVu Serif;font-variant:normal;font-weight:normal;font-size:19.2;writing-mode:lr;-inkscape-font-specification:DejaVuSerif"
             x="0 12.2112"
             y="0"
             sodipodi:role="line"
             id="tspan294">10</tspan></text>
</g><path
         d="m 1735.55,1221.07 0,9.84 24.06,0 0,115.16 -27.97,-17.98 0,12.04 33.91,22.03 12.81,0 0,-131.25 24.06,0 0,-9.84 -66.87,0 z m 155.7,6.56 c 9.37,0 16.41,5.16 21.09,15.46 4.77,10.39 7.19,26.1 7.19,47.04 0,21.01 -2.42,36.76 -7.19,47.19 -4.68,10.39 -11.72,15.62 -21.09,15.62 -9.49,0 -16.64,-5.23 -21.41,-15.62 -4.68,-10.43 -7.03,-26.18 -7.03,-47.19 0,-20.94 2.35,-36.65 7.03,-47.04 4.77,-10.3 11.92,-15.46 21.41,-15.46 z m 0,-9.22 c -15.12,0 -26.87,6.29 -35.31,18.91 -8.44,12.57 -12.66,30.18 -12.66,52.81 0,22.69 4.22,40.35 12.66,52.96 8.44,12.7 20.19,19.07 35.31,19.07 15,0 26.72,-6.37 35.16,-19.07 8.43,-12.61 12.65,-30.27 12.65,-52.96 0,-22.63 -4.22,-40.24 -12.65,-52.81 -8.44,-12.62 -20.16,-18.91 -35.16,-18.91 z"
         style="fill:none;stroke:#000000;stroke-opacity:1;stroke-width:8;stroke-linecap:butt;stroke-linejoin:miter;stroke-miterlimit:4;stroke-dasharray:none"
         id="path296" /><g
         id="g298"
         transform="scale(10,10)"><text
           transform="matrix(1,0,0,-1,278.193,78.334)"
           id="text300"><tspan
             style="fill:#000000;fill-opacity:1;fill-rule:nonzero;stroke:none;font-family:DejaVu Serif;font-variant:normal;font-weight:normal;font-size:19.2;writing-mode:lr;-inkscape-font-specification:DejaVuSerif"
             x="0 12.2112"
             y="0"
             sodipodi:role="line"
             id="tspan302">11</tspan></text>
</g><path
         d="m 2808.98,783.324 0,9.852 24.07,0 0,115.148 -27.97,-17.957 0,12.028 33.9,22.031 12.82,0 0,-131.25 24.06,0 0,-9.852 -66.88,0 z m 122.23,0 0,9.852 24.06,0 0,115.148 -27.97,-17.957 0,12.028 33.91,22.031 12.81,0 0,-131.25 24.07,0 0,-9.852 -66.88,0 z"
         style="fill:none;stroke:#000000;stroke-opacity:1;stroke-width:8;stroke-linecap:butt;stroke-linejoin:miter;stroke-miterlimit:4;stroke-dasharray:none"
         id="path304" /><g
         id="g306"
         transform="scale(10,10)"><text
           transform="matrix(1,0,0,-1,399.595,79.477)"
           id="text308"><tspan
             style="fill:#000000;fill-opacity:1;fill-rule:nonzero;stroke:none;font-family:DejaVu Serif;font-variant:normal;font-weight:normal;font-size:19.2;writing-mode:lr;-inkscape-font-specification:DejaVuSerif"
             x="0 12.2112"
             y="0"
             sodipodi:role="line"
             id="tspan310">12</tspan></text>
</g><path
         d="m 4022.97,794.777 0,9.84 24.06,0 0,115.16 -27.97,-17.972 0,12.031 33.91,22.031 12.81,0 0,-131.25 24.06,0 0,-9.84 -66.87,0 z m 119.61,105.469 -10.47,0 0,24.692 c 6.64,3.507 13.32,6.25 20,8.117 6.64,1.883 13.2,2.812 19.69,2.812 14.45,0 25.86,-3.551 34.22,-10.621 8.32,-6.992 12.5,-16.492 12.5,-28.441 0,-13.551 -9.5,-29.758 -28.44,-48.59 -1.49,-1.488 -2.58,-2.578 -3.28,-3.277 l -35,-35 57.81,0 0,17.179 10.78,0 0,-32.34 -89.22,0 0,10.161 42.03,41.867 c 9.26,9.261 15.86,17.742 19.85,25.472 3.94,7.809 5.93,15.977 5.93,24.528 0,9.383 -2.46,16.64 -7.34,21.883 -4.92,5.308 -11.64,7.957 -20.16,7.957 -8.75,0 -15.58,-2.258 -20.46,-6.707 -4.81,-4.383 -7.62,-10.942 -8.44,-19.692 z"
         style="fill:none;stroke:#000000;stroke-opacity:1;stroke-width:8;stroke-linecap:butt;stroke-linejoin:miter;stroke-miterlimit:4;stroke-dasharray:none"
         id="path312" /><g
         id="g314"
         transform="scale(10,10)"><text
           transform="matrix(1,0,0,-1,601.558,108.807)"
           id="text316"><tspan
             style="fill:#000000;fill-opacity:1;fill-rule:nonzero;stroke:none;font-family:DejaVu Serif;font-variant:normal;font-weight:normal;font-size:19.2;writing-mode:lr;-inkscape-font-specification:DejaVuSerif"
             x="0 12.2112"
             y="0"
             sodipodi:role="line"
             id="tspan318">13</tspan></text>
</g><path
         d="m 6042.62,1088.05 0,9.84 24.06,0 0,115.16 -27.97,-17.96 0,12.03 33.91,22.02 12.81,0 0,-131.25 24.06,0 0,-9.84 -66.87,0 z m 113.67,132.66 c 7.26,2.7 14.22,4.77 20.78,6.25 6.64,1.45 12.89,2.18 18.75,2.18 13.52,0 24.1,-2.95 31.72,-8.89 7.58,-5.86 11.41,-13.91 11.41,-24.22 0,-8.44 -2.66,-15.48 -7.97,-21.09 -5.24,-5.55 -12.62,-9.3 -22.19,-11.25 11.33,-1.69 20.16,-5.87 26.41,-12.5 6.25,-6.57 9.37,-15.16 9.37,-25.8 0,-12.93 -4.34,-22.8 -12.97,-29.68 -8.67,-6.87 -21.17,-10.32 -37.5,-10.32 -7.3,0 -14.37,0.8 -21.25,2.36 -6.87,1.44 -13.71,3.79 -20.47,7.03 l 0,26.86 10.32,0 c 0.62,-8.98 3.59,-15.73 8.9,-20.3 5.39,-4.5 13.01,-6.72 22.81,-6.72 9.46,0 16.92,2.7 22.35,8.13 5.51,5.5 8.28,13 8.28,22.5 0,10.94 -2.81,19.14 -8.44,24.69 -5.62,5.61 -13.87,8.43 -24.69,8.43 l -8.9,0 0,9.52 4.69,0 c 10.82,0 18.94,2.24 24.37,6.73 5.39,4.45 8.13,11.17 8.13,20.16 0,8.11 -2.27,14.29 -6.72,18.59 -4.5,4.38 -10.9,6.57 -19.22,6.57 -8.36,0 -14.85,-2 -19.53,-5.94 -4.61,-4 -7.27,-9.86 -7.97,-17.66 l -10.47,0 0,24.37 z"
         style="fill:none;stroke:#000000;stroke-opacity:1;stroke-width:8;stroke-linecap:butt;stroke-linejoin:miter;stroke-miterlimit:4;stroke-dasharray:none"
         id="path320" /><g
         id="g322"
         transform="scale(10,10)"><text
           transform="matrix(1,0,0,-1,660.551,113.293)"
           id="text324"><tspan
             style="fill:#000000;fill-opacity:1;fill-rule:nonzero;stroke:none;font-family:DejaVu Serif;font-variant:normal;font-weight:normal;font-size:25.6;writing-mode:lr;-inkscape-font-specification:DejaVuSerif"
             x="0 17.536"
             y="0"
             sodipodi:role="line"
             id="tspan326">S2</tspan></text>
</g><path
         d="m 6629.57,1142.16 0,43.13 14.69,-0.16 c 0.39,-14.38 4.57,-25.08 12.5,-32.04 7.89,-6.88 19.92,-10.3 36.09,-10.3 15.08,0 26.6,2.96 34.53,8.9 7.89,6.02 11.88,14.77 11.88,26.25 0,9.06 -2.42,16.02 -7.19,20.94 -4.8,5 -14.92,9.76 -30.31,14.37 l -25,7.5 c -18.13,5.5 -30.9,12.39 -38.28,20.63 -7.43,8.19 -11.1,19.44 -11.1,33.75 0,16.01 5.67,28.48 17.03,37.33 11.45,8.95 27.5,13.45 48.13,13.45 8.83,0 18.48,-1.02 28.91,-2.97 10.5,-1.87 21.71,-4.62 33.59,-8.12 l 0,-40.48 -14.38,0 c -1.36,13.45 -5.78,23.12 -13.28,29.07 -7.5,5.93 -18.9,8.91 -34.22,8.91 -13.43,0 -23.67,-2.77 -30.62,-8.28 -6.99,-5.43 -10.47,-13.36 -10.47,-23.75 0,-9.08 2.58,-16.22 7.81,-21.41 5.32,-5.13 16.45,-10.17 33.44,-15.17 l 23.59,-7.02 c 17.19,-5.23 29.42,-11.83 36.72,-19.85 7.27,-7.93 10.94,-18.59 10.94,-32.02 0,-18.44 -5.9,-32.36 -17.66,-41.73 -11.79,-9.29 -29.29,-13.9 -52.5,-13.9 -10.43,0 -21.05,1.1 -31.87,3.27 -10.74,2.09 -21.72,5.33 -32.97,9.7 z m 184.73,135.16 -14.22,0 0,33.75 c 9.06,4.75 18.16,8.43 27.34,10.93 9.14,2.57 18.17,3.91 27.03,3.91 19.69,0 35.2,-4.8 46.57,-14.37 11.44,-9.61 17.18,-22.58 17.18,-38.91 0,-18.56 -12.93,-40.74 -38.75,-66.56 -2.11,-2 -3.67,-3.44 -4.68,-4.38 l -47.82,-47.98 79.07,0 0,23.45 14.84,0 0,-44.22 -122.19,0 0,13.9 57.5,57.35 c 12.7,12.7 21.76,24.38 27.19,35 5.39,10.63 8.12,21.76 8.12,33.44 0,12.69 -3.36,22.66 -10,29.83 -6.68,7.27 -15.86,10.95 -27.5,10.95 -12.1,0 -21.48,-3.04 -28.12,-9.07 -6.56,-6.05 -10.43,-15.07 -11.56,-27.02 z"
         style="fill:none;stroke:#000000;stroke-opacity:1;stroke-width:8;stroke-linecap:butt;stroke-linejoin:miter;stroke-miterlimit:4;stroke-dasharray:none"
         id="path328" /><g
         id="g330"
         transform="scale(10,10)"><text
           transform="matrix(1,0,0,-1,183.146,353.105)"
           id="text332"><tspan
             style="fill:#000000;fill-opacity:1;fill-rule:nonzero;stroke:none;font-family:DejaVu Serif;font-variant:normal;font-weight:normal;font-size:19.2;writing-mode:lr;-inkscape-font-specification:DejaVuSerif"
             x="0 13.8624"
             y="0"
             sodipodi:role="line"
             id="tspan334">A1</tspan></text>
</g><path
         d="m 1869.41,3581.21 50.94,0 -25.47,65.95 -25.47,-65.95 z m -39.06,-50.14 0,9.84 12.19,0 49.37,128.59 15.47,0 49.53,-128.59 13.6,0 0,-9.84 -50.31,0 0,9.84 15.31,0 -11.56,30.47 -58.29,0 -11.56,-30.47 15.16,0 0,-9.84 -38.91,0 z m 166.88,0 0,9.84 24.06,0 0,115.16 -27.97,-17.98 0,12.04 33.91,22.03 12.81,0 0,-131.25 24.06,0 0,-9.84 -66.87,0 z"
         style="fill:none;stroke:#000000;stroke-opacity:1;stroke-width:8;stroke-linecap:butt;stroke-linejoin:miter;stroke-miterlimit:4;stroke-dasharray:none"
         id="path336" /><g
         id="g338"
         transform="scale(10,10)"><text
           transform="matrix(1,0,0,-1,182.725,322.505)"
           id="text340"><tspan
             style="fill:#000000;fill-opacity:1;fill-rule:nonzero;stroke:none;font-family:DejaVu Serif;font-variant:normal;font-weight:normal;font-size:19.2;writing-mode:lr;-inkscape-font-specification:DejaVuSerif"
             x="0 13.8624"
             y="0"
             sodipodi:role="line"
             id="tspan342">A2</tspan></text>
</g><path
         d="m 1865.2,3275.21 50.93,0 -25.47,65.93 -25.46,-65.93 z m -39.07,-50.16 0,9.84 12.19,0 49.38,128.59 15.46,0 49.54,-128.59 13.59,0 0,-9.84 -50.31,0 0,9.84 15.31,0 -11.56,30.48 -58.28,0 -11.57,-30.48 15.16,0 0,-9.84 -38.91,0 z m 164.22,105.47 -10.47,0 0,24.69 c 6.64,3.5 13.32,6.25 20,8.11 6.64,1.89 13.21,2.82 19.69,2.82 14.45,0 25.86,-3.55 34.22,-10.62 8.32,-6.99 12.5,-16.48 12.5,-28.45 0,-13.54 -9.49,-29.75 -28.44,-48.59 -1.48,-1.48 -2.58,-2.57 -3.28,-3.27 l -35,-35 57.81,0 0,17.18 10.78,0 0,-32.34 -89.21,0 0,10.16 42.03,41.86 c 9.25,9.27 15.86,17.75 19.84,25.48 3.95,7.82 5.94,15.98 5.94,24.52 0,9.39 -2.46,16.64 -7.35,21.89 -4.92,5.31 -11.64,7.97 -20.15,7.97 -8.75,0 -15.59,-2.27 -20.47,-6.72 -4.81,-4.39 -7.62,-10.94 -8.44,-19.69 z"
         style="fill:none;stroke:#000000;stroke-opacity:1;stroke-width:8;stroke-linecap:butt;stroke-linejoin:miter;stroke-miterlimit:4;stroke-dasharray:none"
         id="path344" /><g
         id="g346"
         transform="scale(10,10)"><text
           transform="matrix(1,0,0,-1,182.495,262.105)"
           id="text348"><tspan
             style="fill:#000000;fill-opacity:1;fill-rule:nonzero;stroke:none;font-family:DejaVu Serif;font-variant:normal;font-weight:normal;font-size:19.2;writing-mode:lr;-inkscape-font-specification:DejaVuSerif"
             x="0 13.8624"
             y="0"
             sodipodi:role="line"
             id="tspan350">A3</tspan></text>
</g><path
         d="m 1862.93,2671.21 50.94,0 -25.47,65.95 -25.47,-65.95 z m -39.06,-50.14 0,9.84 12.18,0 49.38,128.59 15.47,0 49.53,-128.59 13.59,0 0,-9.84 -50.31,0 0,9.84 15.31,0 -11.56,30.47 -58.28,0 -11.56,-30.47 15.15,0 0,-9.84 -38.9,0 z m 158.28,132.64 c 7.26,2.7 14.22,4.77 20.78,6.25 6.64,1.45 12.89,2.2 18.75,2.2 13.52,0 24.1,-2.97 31.72,-8.91 7.58,-5.86 11.4,-13.91 11.4,-24.21 0,-8.45 -2.65,-15.47 -7.96,-21.1 -5.24,-5.55 -12.62,-9.3 -22.19,-11.25 11.33,-1.69 20.15,-5.87 26.4,-12.5 6.25,-6.56 9.38,-15.15 9.38,-25.78 0,-12.93 -4.34,-22.82 -12.97,-29.7 -8.67,-6.87 -21.17,-10.3 -37.5,-10.3 -7.3,0 -14.37,0.78 -21.25,2.34 -6.87,1.45 -13.71,3.8 -20.47,7.04 l 0,26.87 10.31,0 c 0.63,-8.98 3.6,-15.75 8.91,-20.32 5.39,-4.48 13.01,-6.71 22.81,-6.71 9.46,0 16.92,2.69 22.35,8.12 5.5,5.5 8.28,13 8.28,22.5 0,10.94 -2.81,19.14 -8.44,24.69 -5.62,5.63 -13.87,8.44 -24.69,8.44 l -8.9,0 0,9.53 4.68,0 c 10.83,0 18.95,2.23 24.38,6.72 5.39,4.44 8.12,11.17 8.12,20.16 0,8.12 -2.26,14.28 -6.71,18.59 -4.5,4.37 -10.9,6.56 -19.22,6.56 -8.36,0 -14.85,-1.99 -19.53,-5.94 -4.61,-3.98 -7.27,-9.84 -7.97,-17.66 l -10.47,0 0,24.37 z"
         style="fill:none;stroke:#000000;stroke-opacity:1;stroke-width:8;stroke-linecap:butt;stroke-linejoin:miter;stroke-miterlimit:4;stroke-dasharray:none"
         id="path352" /><g
         id="g354"
         transform="scale(10,10)"><text
           transform="matrix(1,0,0,-1,325.795,322.505)"
           id="text356"><tspan
             style="fill:#000000;fill-opacity:1;fill-rule:nonzero;stroke:none;font-family:DejaVu Serif;font-variant:normal;font-weight:normal;font-size:19.2;writing-mode:lr;-inkscape-font-specification:DejaVuSerif"
             x="0 14.688"
             y="0"
             sodipodi:role="line"
             id="tspan358">C1</tspan></text>
</g><path
         d="m 3391.84,3261.77 c -4.07,-13.06 -10.9,-22.89 -20.47,-29.54 -9.61,-6.55 -21.8,-9.84 -36.57,-9.84 -8.98,0 -17.34,1.52 -25.15,4.54 -7.74,3.12 -14.53,7.69 -20.47,13.75 -6.99,6.87 -12.19,14.69 -15.63,23.44 -3.35,8.82 -5,18.82 -5,30 0,21.56 6.18,38.93 18.6,52.18 12.5,13.2 28.9,19.84 49.22,19.84 7.58,0 15.66,-1.01 24.22,-2.96 8.51,-1.99 17.69,-5 27.5,-9.06 l 0,-31.89 -10.47,0 c -2.31,11.57 -6.88,20.09 -13.75,25.64 -6.88,5.5 -16.57,8.27 -29.07,8.27 -14.8,0 -26.01,-5.27 -33.59,-15.77 -7.62,-10.43 -11.41,-25.87 -11.41,-46.25 0,-20.24 3.79,-35.59 11.41,-46.1 7.58,-10.56 18.79,-15.79 33.59,-15.79 10.32,0 18.79,2.43 25.47,7.34 6.76,5 11.61,12.39 14.53,22.2 l 17.04,0 z m 40.15,-36.72 0,9.84 24.06,0 0,115.16 -27.96,-17.98 0,12.05 33.9,22.02 12.81,0 0,-131.25 24.07,0 0,-9.84 -66.88,0 z"
         style="fill:none;stroke:#000000;stroke-opacity:1;stroke-width:8;stroke-linecap:butt;stroke-linejoin:miter;stroke-miterlimit:4;stroke-dasharray:none"
         id="path360" /><g
         id="g362"
         transform="scale(10,10)"><text
           transform="matrix(1,0,0,-1,379.595,374.905)"
           id="text364"><tspan
             style="fill:#000000;fill-opacity:1;fill-rule:nonzero;stroke:none;font-family:DejaVu Serif;font-variant:normal;font-weight:normal;font-size:19.2;writing-mode:lr;-inkscape-font-specification:DejaVuSerif"
             x="0 14.688"
             y="0"
             sodipodi:role="line"
             id="tspan366">C2</tspan></text>
</g><path
         d="m 3929.84,3785.79 c -4.06,-13.04 -10.89,-22.9 -20.46,-29.54 -9.61,-6.55 -21.8,-9.84 -36.57,-9.84 -8.98,0 -17.34,1.53 -25.15,4.54 -7.74,3.12 -14.54,7.69 -20.47,13.75 -6.99,6.87 -12.19,14.69 -15.63,23.44 -3.36,8.82 -5,18.82 -5,30 0,21.56 6.17,38.93 18.6,52.18 12.5,13.21 28.9,19.84 49.22,19.84 7.57,0 15.66,-1.02 24.21,-2.96 8.52,-1.99 17.7,-5 27.5,-9.06 l 0,-31.89 -10.47,0 c -2.3,11.57 -6.87,20.09 -13.74,25.64 -6.88,5.5 -16.57,8.27 -29.07,8.27 -14.8,0 -26.01,-5.27 -33.59,-15.77 -7.62,-10.43 -11.41,-25.86 -11.41,-46.25 0,-20.25 3.79,-35.59 11.41,-46.09 7.58,-10.55 18.79,-15.8 33.59,-15.8 10.31,0 18.79,2.44 25.47,7.36 6.76,5 11.6,12.37 14.53,22.18 l 17.03,0 z m 37.46,68.76 -10.46,0 0,24.68 c 6.64,3.52 13.32,6.25 20,8.13 6.64,1.87 13.2,2.8 19.68,2.8 14.46,0 25.86,-3.54 34.22,-10.61 8.32,-7 12.5,-16.5 12.5,-28.44 0,-13.56 -9.49,-29.77 -28.44,-48.61 -1.48,-1.47 -2.57,-2.56 -3.28,-3.27 l -35,-35 57.82,0 0,17.18 10.78,0 0,-32.34 -89.22,0 0,10.16 42.03,41.88 c 9.26,9.26 15.86,17.73 19.84,25.46 3.95,7.82 5.94,15.98 5.94,24.54 0,9.37 -2.46,16.64 -7.34,21.87 -4.92,5.31 -11.64,7.97 -20.16,7.97 -8.75,0 -15.59,-2.26 -20.47,-6.72 -4.8,-4.37 -7.62,-10.94 -8.44,-19.68 z"
         style="fill:none;stroke:#000000;stroke-opacity:1;stroke-width:8;stroke-linecap:butt;stroke-linejoin:miter;stroke-miterlimit:4;stroke-dasharray:none"
         id="path368" /><g
         id="g370"
         transform="scale(10,10)"><text
           transform="matrix(1,0,0,-1,325.143,231.305)"
           id="text372"><tspan
             style="fill:#000000;fill-opacity:1;fill-rule:nonzero;stroke:none;font-family:DejaVu Serif;font-variant:normal;font-weight:normal;font-size:19.2;writing-mode:lr;-inkscape-font-specification:DejaVuSerif"
             x="0 14.688"
             y="0"
             sodipodi:role="line"
             id="tspan374">C3</tspan></text>
</g><path
         d="m 3385.35,2349.78 c -4.06,-13.05 -10.9,-22.89 -20.47,-29.53 -9.61,-6.56 -21.79,-9.86 -36.56,-9.86 -8.98,0 -17.34,1.54 -25.16,4.55 -7.73,3.11 -14.53,7.69 -20.46,13.75 -7,6.86 -12.19,14.68 -15.63,23.43 -3.36,8.83 -5,18.83 -5,30 0,21.57 6.17,38.95 18.59,52.18 12.5,13.2 28.91,19.84 49.22,19.84 7.58,0 15.67,-1 24.22,-2.95 8.52,-2 17.7,-5 27.5,-9.07 l 0,-31.87 -10.47,0 c -2.3,11.55 -6.87,20.07 -13.75,25.62 -6.87,5.51 -16.56,8.27 -29.06,8.27 -14.8,0 -26.02,-5.26 -33.59,-15.77 -7.62,-10.43 -11.41,-25.87 -11.41,-46.25 0,-20.23 3.79,-35.58 11.41,-46.09 7.57,-10.55 18.79,-15.78 33.59,-15.78 10.31,0 18.79,2.41 25.47,7.34 6.76,5 11.6,12.37 14.53,22.19 l 17.03,0 z m 31.53,95.93 c 7.26,2.7 14.21,4.77 20.78,6.25 6.64,1.45 12.89,2.18 18.75,2.18 13.51,0 24.1,-2.95 31.71,-8.89 7.58,-5.86 11.41,-13.91 11.41,-24.22 0,-8.44 -2.65,-15.48 -7.97,-21.09 -5.23,-5.55 -12.61,-9.3 -22.18,-11.25 11.32,-1.69 20.15,-5.87 26.4,-12.5 6.25,-6.57 9.38,-15.16 9.38,-25.8 0,-12.93 -4.34,-22.8 -12.97,-29.68 -8.67,-6.87 -21.17,-10.32 -37.5,-10.32 -7.31,0 -14.38,0.8 -21.25,2.36 -6.88,1.44 -13.71,3.79 -20.47,7.03 l 0,26.86 10.31,0 c 0.63,-8.98 3.6,-15.73 8.91,-20.3 5.39,-4.5 13.01,-6.72 22.81,-6.72 9.45,0 16.91,2.7 22.34,8.13 5.51,5.5 8.28,13 8.28,22.5 0,10.94 -2.81,19.14 -8.43,24.69 -5.63,5.61 -13.87,8.43 -24.69,8.43 l -8.91,0 0,9.52 4.69,0 c 10.82,0 18.95,2.24 24.38,6.73 5.39,4.45 8.12,11.17 8.12,20.16 0,8.11 -2.26,14.29 -6.72,18.59 -4.49,4.38 -10.9,6.57 -19.22,6.57 -8.36,0 -14.84,-2 -19.53,-5.94 -4.61,-4 -7.26,-9.86 -7.97,-17.66 l -10.46,0 0,24.37 z"
         style="fill:none;stroke:#000000;stroke-opacity:1;stroke-width:8;stroke-linecap:butt;stroke-linejoin:miter;stroke-miterlimit:4;stroke-dasharray:none"
         id="path376" /><g
         id="g378"
         transform="scale(10,10)"><text
           transform="matrix(1,0,0,-1,181.595,170.505)"
           id="text380"><tspan
             style="fill:#000000;fill-opacity:1;fill-rule:nonzero;stroke:none;font-family:DejaVu Serif;font-variant:normal;font-weight:normal;font-size:19.2;writing-mode:lr;-inkscape-font-specification:DejaVuSerif"
             x="0 14.112"
             y="0"
             sodipodi:role="line"
             id="tspan382">B1</tspan></text>
</g><path
         d="m 1862.81,1714.89 27.81,0 c 11.14,0 19.26,2.39 24.38,7.18 5.08,4.89 7.66,12.59 7.66,23.14 0,10.38 -2.58,18 -7.66,22.81 -5.12,4.77 -13.24,7.19 -24.38,7.19 l -27.81,0 0,-60.32 z m 0,70.16 23.6,0 c 10.19,0 17.57,1.91 22.18,5.77 4.69,3.96 7.03,10.09 7.03,18.45 0,8.52 -2.34,14.73 -7.03,18.6 -4.61,3.82 -11.99,5.77 -22.18,5.77 l -23.6,0 0,-48.59 z m -36.4,-80 0,9.84 17.65,0 0,118.75 -17.65,0 0,9.84 68.43,0 c 13.95,0 24.46,-2.89 31.57,-8.59 7.07,-5.62 10.62,-14.18 10.62,-25.62 0,-8.24 -2.5,-14.81 -7.5,-19.7 -4.92,-4.79 -12.03,-7.77 -21.41,-8.89 11.65,-1.49 20.51,-5.24 26.57,-11.25 6.13,-6.06 9.22,-14.14 9.22,-24.22 0,-13.75 -4.34,-23.91 -12.97,-30.48 -8.67,-6.48 -22.15,-9.68 -40.47,-9.68 l -64.06,0 z m 157.57,0 0,9.84 24.07,0 0,115.16 -27.97,-17.98 0,12.05 33.9,22.02 12.82,0 0,-131.25 24.06,0 0,-9.84 -66.88,0 z"
         style="fill:none;stroke:#000000;stroke-opacity:1;stroke-width:8;stroke-linecap:butt;stroke-linejoin:miter;stroke-miterlimit:4;stroke-dasharray:none"
         id="path384" /><g
         id="g386"
         transform="scale(10,10)"><text
           transform="matrix(1,0,0,-1,280.225,154.905)"
           id="text388"><tspan
             style="fill:#000000;fill-opacity:1;fill-rule:nonzero;stroke:none;font-family:DejaVu Serif;font-variant:normal;font-weight:normal;font-size:19.2;writing-mode:lr;-inkscape-font-specification:DejaVuSerif"
             x="0 14.112"
             y="0"
             sodipodi:role="line"
             id="tspan390">B2</tspan></text>
</g><path
         d="m 2849.1,1558.91 27.81,0 c 11.14,0 19.26,2.39 24.38,7.2 5.08,4.87 7.66,12.58 7.66,23.12 0,10.39 -2.58,18 -7.66,22.82 -5.12,4.75 -13.24,7.18 -24.38,7.18 l -27.81,0 0,-60.32 z m 0,70.16 23.6,0 c 10.19,0 17.57,1.91 22.18,5.79 4.69,3.94 7.03,10.08 7.03,18.43 0,8.51 -2.34,14.73 -7.03,18.6 -4.61,3.82 -11.99,5.77 -22.18,5.77 l -23.6,0 0,-48.59 z m -36.4,-80 0,9.84 17.65,0 0,118.75 -17.65,0 0,9.84 68.43,0 c 13.95,0 24.46,-2.88 31.57,-8.59 7.07,-5.62 10.62,-14.18 10.62,-25.62 0,-8.24 -2.5,-14.81 -7.5,-19.68 -4.92,-4.81 -12.03,-7.79 -21.41,-8.91 11.64,-1.49 20.51,-5.24 26.57,-11.25 6.13,-6.06 9.22,-14.15 9.22,-24.22 0,-13.75 -4.34,-23.91 -12.97,-30.48 -8.68,-6.47 -22.15,-9.68 -40.47,-9.68 l -64.06,0 z m 154.92,105.48 -10.47,0 0,24.68 c 6.64,3.52 13.32,6.25 20,8.13 6.64,1.87 13.2,2.8 19.69,2.8 14.45,0 25.86,-3.54 34.21,-10.61 8.33,-7 12.5,-16.5 12.5,-28.44 0,-13.56 -9.49,-29.77 -28.43,-48.61 -1.49,-1.47 -2.58,-2.56 -3.28,-3.27 l -35,-35 57.81,0 0,17.18 10.78,0 0,-32.34 -89.22,0 0,10.16 42.03,41.88 c 9.26,9.26 15.86,17.73 19.85,25.46 3.94,7.82 5.93,15.98 5.93,24.54 0,9.37 -2.46,16.64 -7.34,21.87 -4.92,5.31 -11.64,7.97 -20.16,7.97 -8.75,0 -15.58,-2.26 -20.47,-6.72 -4.8,-4.37 -7.61,-10.94 -8.43,-19.68 z"
         style="fill:none;stroke:#000000;stroke-opacity:1;stroke-width:8;stroke-linecap:butt;stroke-linejoin:miter;stroke-miterlimit:4;stroke-dasharray:none"
         id="path392" /><g
         id="g394"
         transform="scale(10,10)"><text
           transform="matrix(1,0,0,-1,546.885,150.105)"
           id="text396"><tspan
             style="fill:#000000;fill-opacity:1;fill-rule:nonzero;stroke:none;font-family:DejaVu Serif;font-variant:normal;font-weight:normal;font-size:19.2;writing-mode:lr;-inkscape-font-specification:DejaVuSerif"
             x="0 15.3984"
             y="0"
             sodipodi:role="line"
             id="tspan398">D1</tspan></text>
</g><path
         d="m 5515.74,1510.91 17.35,0 c 18,0 31.79,5.07 41.4,15.3 9.57,10.33 14.38,25.04 14.38,44.23 0,19.13 -4.81,33.79 -14.38,43.9 -9.61,10.21 -23.4,15.32 -41.4,15.32 l -17.35,0 0,-118.75 z m -36.4,-9.84 0,9.84 17.65,0 0,118.75 -17.65,0 0,9.84 55.15,0 c 23.83,0 42.42,-6.09 55.78,-18.29 13.32,-12.09 20,-29.01 20,-50.77 0,-21.8 -6.72,-38.82 -20.15,-51.1 -13.36,-12.18 -31.88,-18.27 -55.63,-18.27 l -55.15,0 z m 170.66,0 0,9.84 24.06,0 0,115.16 -27.97,-17.98 0,12.04 33.91,22.03 12.81,0 0,-131.25 24.07,0 0,-9.84 -66.88,0 z"
         style="fill:none;stroke:#000000;stroke-opacity:1;stroke-width:8;stroke-linecap:butt;stroke-linejoin:miter;stroke-miterlimit:4;stroke-dasharray:none"
         id="path400" /><g
         id="g402"
         transform="scale(10,10)"><text
           transform="matrix(1,0,0,-1,546.463,215.575)"
           id="text404"><tspan
             style="fill:#000000;fill-opacity:1;fill-rule:nonzero;stroke:none;font-family:DejaVu Serif;font-variant:normal;font-weight:normal;font-size:19.2;writing-mode:lr;-inkscape-font-specification:DejaVuSerif"
             x="0 15.3984"
             y="0"
             sodipodi:role="line"
             id="tspan406">D2</tspan></text>
</g><path
         d="m 5511.52,2165.59 17.35,0 c 18.01,0 31.79,5.09 41.4,15.32 9.57,10.3 14.38,25.04 14.38,44.22 0,19.14 -4.81,33.78 -14.38,43.91 -9.61,10.19 -23.39,15.3 -41.4,15.3 l -17.35,0 0,-118.75 z m -36.4,-9.84 0,9.84 17.65,0 0,118.75 -17.65,0 0,9.85 55.15,0 c 23.83,0 42.43,-6.1 55.78,-18.28 13.33,-12.11 20,-29.02 20,-50.78 0,-21.81 -6.71,-38.83 -20.15,-51.09 -13.36,-12.2 -31.88,-18.29 -55.63,-18.29 l -55.15,0 z m 168,105.46 -10.46,0 0,24.7 c 6.64,3.52 13.32,6.25 20,8.13 6.64,1.87 13.2,2.8 19.68,2.8 14.46,0 25.86,-3.55 34.22,-10.63 8.32,-6.98 12.5,-16.48 12.5,-28.42 0,-13.56 -9.49,-29.77 -28.44,-48.6 -1.48,-1.48 -2.57,-2.57 -3.28,-3.28 l -35,-35 57.82,0 0,17.18 10.78,0 0,-32.34 -89.22,0 0,10.16 42.03,41.88 c 9.26,9.26 15.86,17.73 19.84,25.46 3.95,7.82 5.94,15.98 5.94,24.54 0,9.37 -2.46,16.64 -7.34,21.87 -4.92,5.3 -11.64,7.97 -20.16,7.97 -8.75,0 -15.58,-2.26 -20.47,-6.72 -4.8,-4.37 -7.61,-10.95 -8.44,-19.7 z"
         style="fill:none;stroke:#000000;stroke-opacity:1;stroke-width:8;stroke-linecap:butt;stroke-linejoin:miter;stroke-miterlimit:4;stroke-dasharray:none"
         id="path408" /><g
         id="g410"
         transform="scale(10,10)"><text
           transform="matrix(1,0,0,-1,449.595,151.505)"
           id="text412"><tspan
             style="fill:#000000;fill-opacity:1;fill-rule:nonzero;stroke:none;font-family:DejaVu Serif;font-variant:normal;font-weight:normal;font-size:19.2;writing-mode:lr;-inkscape-font-specification:DejaVuSerif"
             x="0 14.016"
             y="0"
             sodipodi:role="line"
             id="tspan414">E1</tspan></text>
</g><path
         d="m 4506.41,1515.05 0,9.84 17.65,0 0,118.75 -17.65,0 0,9.84 111.56,0 0,-30.77 -11.41,0 0,19.36 -63.75,0 0,-46.25 45.47,0 0,17.36 11.41,0 0,-46.11 -11.41,0 0,17.36 -45.47,0 0,-57.97 65.16,0 0,19.36 11.41,0 0,-30.77 -112.97,0 z m 156.83,0 0,9.84 24.06,0 0,115.16 -27.96,-17.98 0,12.05 33.9,22.02 12.81,0 0,-131.25 24.07,0 0,-9.84 -66.88,0 z"
         style="fill:none;stroke:#000000;stroke-opacity:1;stroke-width:8;stroke-linecap:butt;stroke-linejoin:miter;stroke-miterlimit:4;stroke-dasharray:none"
         id="path416" /><g
         id="g418"
         transform="scale(10,10)"><text
           transform="matrix(1,0,0,-1,375.995,151.505)"
           id="text420"><tspan
             style="fill:#000000;fill-opacity:1;fill-rule:nonzero;stroke:none;font-family:DejaVu Serif;font-variant:normal;font-weight:normal;font-size:19.2;writing-mode:lr;-inkscape-font-specification:DejaVuSerif"
             x="0 14.016"
             y="0"
             sodipodi:role="line"
             id="tspan422">E2</tspan></text>
</g><path
         d="m 3770.43,1515.05 0,9.84 17.66,0 0,118.75 -17.66,0 0,9.84 111.56,0 0,-30.77 -11.4,0 0,19.36 -63.75,0 0,-46.25 45.46,0 0,17.36 11.41,0 0,-46.11 -11.41,0 0,17.36 -45.46,0 0,-57.97 65.15,0 0,19.36 11.41,0 0,-30.77 -112.97,0 z m 154.14,105.47 -10.47,0 0,24.69 c 6.64,3.5 13.32,6.25 20,8.11 6.64,1.89 13.2,2.82 19.69,2.82 14.45,0 25.86,-3.55 34.22,-10.62 8.32,-6.99 12.5,-16.48 12.5,-28.45 0,-13.54 -9.49,-29.75 -28.44,-48.59 -1.48,-1.48 -2.58,-2.57 -3.28,-3.27 l -35,-35 57.81,0 0,17.18 10.78,0 0,-32.34 -89.22,0 0,10.16 42.04,41.86 c 9.25,9.27 15.85,17.75 19.84,25.48 3.94,7.82 5.94,15.98 5.94,24.52 0,9.39 -2.46,16.64 -7.35,21.89 -4.92,5.31 -11.64,7.97 -20.15,7.97 -8.75,0 -15.59,-2.27 -20.47,-6.72 -4.81,-4.39 -7.62,-10.94 -8.44,-19.69 z"
         style="fill:none;stroke:#000000;stroke-opacity:1;stroke-width:8;stroke-linecap:butt;stroke-linejoin:miter;stroke-miterlimit:4;stroke-dasharray:none"
         id="path424" /><g
         id="g426"
         transform="scale(10,10)"><text
           transform="matrix(1,0,0,-1,457.595,250.105)"
           id="text428"><tspan
             style="fill:#000000;fill-opacity:1;fill-rule:nonzero;stroke:none;font-family:DejaVu Serif;font-variant:normal;font-weight:normal;font-size:19.2;writing-mode:lr;-inkscape-font-specification:DejaVuSerif"
             x="0 14.016"
             y="0"
             sodipodi:role="line"
             id="tspan430">E3</tspan></text>
</g><path
         d="m 4586.41,2501.07 0,9.84 17.65,0 0,118.75 -17.65,0 0,9.84 111.56,0 0,-30.79 -11.41,0 0,19.38 -63.75,0 0,-46.25 45.47,0 0,17.35 11.41,0 0,-46.1 -11.41,0 0,17.35 -45.47,0 0,-57.98 65.16,0 0,19.38 11.41,0 0,-30.77 -112.97,0 z m 148.24,132.64 c 7.26,2.7 14.22,4.77 20.78,6.25 6.64,1.45 12.89,2.2 18.75,2.2 13.52,0 24.1,-2.97 31.72,-8.91 7.58,-5.86 11.4,-13.91 11.4,-24.21 0,-8.45 -2.65,-15.47 -7.96,-21.1 -5.24,-5.55 -12.62,-9.3 -22.19,-11.25 11.33,-1.69 20.15,-5.87 26.4,-12.5 6.25,-6.56 9.38,-15.15 9.38,-25.78 0,-12.93 -4.34,-22.82 -12.97,-29.7 -8.67,-6.87 -21.17,-10.3 -37.5,-10.3 -7.3,0 -14.37,0.78 -21.25,2.34 -6.87,1.45 -13.71,3.8 -20.47,7.04 l 0,26.87 10.31,0 c 0.63,-8.98 3.6,-15.75 8.91,-20.32 5.39,-4.48 13.01,-6.71 22.81,-6.71 9.46,0 16.92,2.69 22.35,8.12 5.5,5.5 8.28,13 8.28,22.5 0,10.94 -2.81,19.14 -8.44,24.69 -5.62,5.63 -13.87,8.44 -24.69,8.44 l -8.9,0 0,9.53 4.68,0 c 10.83,0 18.95,2.23 24.38,6.72 5.39,4.44 8.12,11.17 8.12,20.16 0,8.12 -2.26,14.28 -6.71,18.59 -4.5,4.37 -10.9,6.56 -19.22,6.56 -8.36,0 -14.85,-1.99 -19.53,-5.94 -4.61,-3.98 -7.27,-9.84 -7.97,-17.66 l -10.47,0 0,24.37 z"
         style="fill:none;stroke:#000000;stroke-opacity:1;stroke-width:8;stroke-linecap:butt;stroke-linejoin:miter;stroke-miterlimit:4;stroke-dasharray:none"
         id="path432" /><g
         id="g434"
         transform="scale(10,10)"><text
           transform="matrix(1,0,0,-1,508.64,374.676)"
           id="text436"><tspan
             style="fill:#000000;fill-opacity:1;fill-rule:nonzero;stroke:none;font-family:DejaVu Serif;font-variant:normal;font-weight:normal;font-size:19.2;writing-mode:lr;-inkscape-font-specification:DejaVuSerif"
             x="0 13.3248"
             y="0"
             sodipodi:role="line"
             id="tspan438">F1</tspan></text>
</g><path
         d="m 5096.88,3746.77 0,9.85 17.65,0 0,118.75 -17.65,0 0,9.84 113.43,0 0,-30.78 -11.4,0 0,19.37 -65.63,0 0,-46.25 47.34,0 0,17.34 11.41,0 0,-46.09 -11.41,0 0,17.34 -47.34,0 0,-59.52 22.19,0 0,-9.85 -58.59,0 z m 149.68,0 0,9.85 24.06,0 0,115.15 -27.96,-17.97 0,12.02 33.9,22.05 12.82,0 0,-131.25 24.06,0 0,-9.85 -66.88,0 z"
         style="fill:none;stroke:#000000;stroke-opacity:1;stroke-width:8;stroke-linecap:butt;stroke-linejoin:miter;stroke-miterlimit:4;stroke-dasharray:none"
         id="path440" /><g
         id="g442"
         transform="scale(10,10)"><text
           transform="matrix(1,0,0,-1,568.409,374.676)"
           id="text444"><tspan
             style="fill:#000000;fill-opacity:1;fill-rule:nonzero;stroke:none;font-family:DejaVu Serif;font-variant:normal;font-weight:normal;font-size:19.2;writing-mode:lr;-inkscape-font-specification:DejaVuSerif"
             x="0 13.3248"
             y="0"
             sodipodi:role="line"
             id="tspan446">F2</tspan></text>
</g><path
         d="m 5694.57,3746.77 0,9.85 17.66,0 0,118.75 -17.66,0 0,9.84 113.44,0 0,-30.78 -11.41,0 0,19.37 -65.62,0 0,-46.25 47.34,0 0,17.34 11.41,0 0,-46.09 -11.41,0 0,17.34 -47.34,0 0,-59.52 22.18,0 0,-9.85 -58.59,0 z m 147.03,105.46 -10.47,0 0,24.7 c 6.64,3.51 13.32,6.25 20,8.12 6.64,1.88 13.21,2.82 19.69,2.82 14.45,0 25.86,-3.57 34.22,-10.64 8.32,-6.98 12.5,-16.48 12.5,-28.43 0,-13.55 -9.49,-29.76 -28.44,-48.59 -1.48,-1.5 -2.58,-2.58 -3.28,-3.28 l -35,-35 57.81,0 0,17.19 10.78,0 0,-32.35 -89.21,0 0,10.16 42.03,41.87 c 9.25,9.25 15.86,17.74 19.84,25.47 3.95,7.8 5.94,15.98 5.94,24.53 0,9.38 -2.46,16.64 -7.35,21.88 -4.92,5.3 -11.64,7.96 -20.15,7.96 -8.75,0 -15.59,-2.26 -20.47,-6.71 -4.81,-4.38 -7.62,-10.95 -8.44,-19.7 z"
         style="fill:none;stroke:#000000;stroke-opacity:1;stroke-width:8;stroke-linecap:butt;stroke-linejoin:miter;stroke-miterlimit:4;stroke-dasharray:none"
         id="path448" /><g
         id="g450"
         transform="scale(10,10)"><text
           transform="matrix(1,0,0,-1,507.988,317.945)"
           id="text452"><tspan
             style="fill:#000000;fill-opacity:1;fill-rule:nonzero;stroke:none;font-family:DejaVu Serif;font-variant:normal;font-weight:normal;font-size:19.2;writing-mode:lr;-inkscape-font-specification:DejaVuSerif"
             x="0 13.3248"
             y="0"
             sodipodi:role="line"
             id="tspan454">F3</tspan></text>
</g><path
         d="m 5090.35,3179.46 0,9.84 17.66,0 0,118.75 -17.66,0 0,9.84 113.44,0 0,-30.77 -11.41,0 0,19.38 -65.62,0 0,-46.25 47.34,0 0,17.34 11.41,0 0,-46.09 -11.41,0 0,17.34 -47.34,0 0,-59.54 22.19,0 0,-9.84 -58.6,0 z m 141.1,132.66 c 7.26,2.7 14.21,4.77 20.78,6.25 6.64,1.45 12.89,2.18 18.75,2.18 13.51,0 24.1,-2.96 31.72,-8.91 7.57,-5.85 11.4,-13.89 11.4,-24.2 0,-8.44 -2.65,-15.48 -7.97,-21.1 -5.23,-5.55 -12.61,-9.29 -22.18,-11.25 11.32,-1.68 20.15,-5.86 26.4,-12.5 6.25,-6.56 9.38,-15.15 9.38,-25.79 0,-12.92 -4.34,-22.8 -12.97,-29.68 -8.67,-6.87 -21.17,-10.32 -37.5,-10.32 -7.31,0 -14.38,0.79 -21.25,2.34 -6.88,1.45 -13.71,3.8 -20.47,7.05 l 0,26.86 10.31,0 c 0.63,-8.98 3.6,-15.73 8.91,-20.3 5.39,-4.5 13.01,-6.72 22.81,-6.72 9.45,0 16.91,2.68 22.34,8.11 5.51,5.52 8.29,13.02 8.29,22.5 0,10.95 -2.82,19.15 -8.44,24.7 -5.63,5.62 -13.87,8.44 -24.69,8.44 l -8.91,0 0,9.52 4.69,0 c 10.82,0 18.95,2.24 24.38,6.73 5.39,4.45 8.12,11.17 8.12,20.16 0,8.11 -2.26,14.29 -6.72,18.59 -4.49,4.36 -10.9,6.56 -19.22,6.56 -8.36,0 -14.84,-2 -19.53,-5.95 -4.61,-3.98 -7.26,-9.84 -7.97,-17.64 l -10.46,0 0,24.37 z"
         style="fill:none;stroke:#000000;stroke-opacity:1;stroke-width:8;stroke-linecap:butt;stroke-linejoin:miter;stroke-miterlimit:4;stroke-dasharray:none"
         id="path456" /><g
         id="g458"
         transform="scale(10,10)"><text
           transform="matrix(1,0,0,-1,178.954,40.7574)"
           id="text460"><tspan
             style="fill:#000000;fill-opacity:1;fill-rule:nonzero;stroke:none;font-family:DejaVu Serif;font-variant:normal;font-weight:normal;font-size:19.2;writing-mode:lr;-inkscape-font-specification:DejaVuSerif"
             x="0 15.3408"
             y="0"
             sodipodi:role="line"
             id="tspan462">G1</tspan></text>
</g><path
         d="m 1911.09,504.777 c -2.11,11.559 -6.56,20.078 -13.43,25.618 -6.88,5.511 -16.49,8.293 -28.75,8.293 -15.94,0 -27.89,-5.161 -35.79,-15.473 -7.81,-10.238 -11.71,-25.75 -11.71,-46.57 0,-20.309 4.06,-35.739 12.18,-46.25 8.13,-10.43 20.04,-15.618 35.79,-15.618 6.95,0 13.63,0.86 20,2.661 6.32,1.75 12.38,4.367 18.12,7.808 l 0,35.621 -26.09,0 0,10 45,0 0,-51.722 c -8.25,-4.68 -17.11,-8.239 -26.57,-10.618 -9.49,-2.382 -19.64,-3.589 -30.46,-3.589 -20.94,0 -37.74,6.476 -50.32,19.527 -12.61,13.121 -18.9,30.5 -18.9,52.18 0,21.96 6.29,39.46 18.9,52.5 12.7,13.011 29.69,19.543 50.94,19.543 7.89,0 16.09,-0.942 24.53,-2.821 8.44,-1.871 17.42,-4.652 27.03,-8.281 l 0,-32.809 -10.47,0 z m 58.87,-97.191 0,9.852 24.06,0 0,115.148 -27.97,-17.969 0,12.028 33.91,22.043 12.81,0 0,-131.25 24.07,0 0,-9.852 -66.88,0 z"
         style="fill:none;stroke:#000000;stroke-opacity:1;stroke-width:8;stroke-linecap:butt;stroke-linejoin:miter;stroke-miterlimit:4;stroke-dasharray:none"
         id="path464" /><g
         id="g466"
         transform="scale(10,10)"><text
           transform="matrix(1,0,0,-1,225.357,40.7574)"
           id="text468"><tspan
             style="fill:#000000;fill-opacity:1;fill-rule:nonzero;stroke:none;font-family:DejaVu Serif;font-variant:normal;font-weight:normal;font-size:19.2;writing-mode:lr;-inkscape-font-specification:DejaVuSerif"
             x="0 15.3408"
             y="0"
             sodipodi:role="line"
             id="tspan470">G2</tspan></text>
</g><path
         d="m 2375.12,504.777 c -2.11,11.559 -6.57,20.078 -13.44,25.618 -6.88,5.511 -16.48,8.293 -28.75,8.293 -15.94,0 -27.89,-5.161 -35.78,-15.473 -7.81,-10.238 -11.72,-25.75 -11.72,-46.57 0,-20.309 4.06,-35.739 12.19,-46.25 8.12,-10.43 20.04,-15.618 35.78,-15.618 6.95,0 13.63,0.86 20,2.661 6.33,1.75 12.38,4.367 18.12,7.808 l 0,35.621 -26.09,0 0,10 45,0 0,-51.722 c -8.24,-4.68 -17.11,-8.239 -26.56,-10.618 -9.49,-2.382 -19.65,-3.589 -30.47,-3.589 -20.94,0 -37.74,6.476 -50.31,19.527 -12.62,13.121 -18.91,30.5 -18.91,52.18 0,21.96 6.29,39.46 18.91,52.5 12.69,13.011 29.68,19.543 50.93,19.543 7.89,0 16.1,-0.942 24.53,-2.821 8.44,-1.871 17.43,-4.652 27.04,-8.281 l 0,-32.809 -10.47,0 z m 56.21,8.278 -10.47,0 0,24.691 c 6.64,3.508 13.32,6.25 20,8.121 6.64,1.879 13.2,2.821 19.69,2.821 14.45,0 25.86,-3.563 34.22,-10.633 8.32,-6.989 12.5,-16.481 12.5,-28.438 0,-13.551 -9.5,-29.762 -28.44,-48.59 -1.49,-1.48 -2.58,-2.582 -3.28,-3.281 l -35,-35 57.81,0 0,17.192 10.78,0 0,-32.352 -89.22,0 0,10.16 42.03,41.871 c 9.26,9.258 15.86,17.738 19.85,25.469 3.94,7.809 5.93,15.98 5.93,24.531 0,9.379 -2.46,16.637 -7.34,21.879 -4.92,5.309 -11.64,7.969 -20.16,7.969 -8.75,0 -15.58,-2.27 -20.46,-6.719 -4.81,-4.379 -7.62,-10.941 -8.44,-19.691 z"
         style="fill:none;stroke:#000000;stroke-opacity:1;stroke-width:8;stroke-linecap:butt;stroke-linejoin:miter;stroke-miterlimit:4;stroke-dasharray:none"
         id="path472" /><g
         id="g474"
         transform="scale(10,10)"><text
           transform="matrix(1,0,0,-1,320.181,40.6215)"
           id="text476"><tspan
             style="fill:#000000;fill-opacity:1;fill-rule:nonzero;stroke:none;font-family:DejaVu Serif;font-variant:normal;font-weight:normal;font-size:19.2;writing-mode:lr;-inkscape-font-specification:DejaVuSerif"
             x="0 16.7424"
             y="0"
             sodipodi:role="line"
             id="tspan478">H1</tspan></text>
</g><path
         d="m 3212.27,406.215 0,9.851 17.65,0 0,118.75 -17.65,0 0,9.84 54.06,0 0,-9.84 -17.66,0 0,-47.812 71.88,0 0,47.812 -17.66,0 0,9.84 54.06,0 0,-9.84 -17.5,0 0,-118.75 17.5,0 0,-9.851 -54.06,0 0,9.851 17.66,0 0,59.528 -71.88,0 0,-59.528 17.66,0 0,-9.851 -54.06,0 z m 184.21,0 0,9.851 24.07,0 0,115.149 -27.97,-17.961 0,12.031 33.9,22.031 12.82,0 0,-131.25 24.06,0 0,-9.851 -66.88,0 z"
         style="fill:none;stroke:#000000;stroke-opacity:1;stroke-width:8;stroke-linecap:butt;stroke-linejoin:miter;stroke-miterlimit:4;stroke-dasharray:none"
         id="path480" /><g
         id="g482"
         transform="scale(10,10)"><text
           transform="matrix(1,0,0,-1,319.759,112.138)"
           id="text484"><tspan
             style="fill:#000000;fill-opacity:1;fill-rule:nonzero;stroke:none;font-family:DejaVu Serif;font-variant:normal;font-weight:normal;font-size:19.2;writing-mode:lr;-inkscape-font-specification:DejaVuSerif"
             x="0 16.7424"
             y="0"
             sodipodi:role="line"
             id="tspan486">H2</tspan></text>
</g><path
         d="m 3208.05,1121.38 0,9.83 17.65,0 0,118.75 -17.65,0 0,9.86 54.06,0 0,-9.86 -17.66,0 0,-47.8 71.88,0 0,47.8 -17.66,0 0,9.86 54.06,0 0,-9.86 -17.5,0 0,-118.75 17.5,0 0,-9.83 -54.06,0 0,9.83 17.66,0 0,59.54 -71.88,0 0,-59.54 17.66,0 0,-9.83 -54.06,0 z m 181.56,105.46 -10.47,0 0,24.7 c 6.64,3.51 13.32,6.25 20,8.12 6.64,1.88 13.2,2.8 19.69,2.8 14.45,0 25.86,-3.55 34.22,-10.62 8.32,-6.98 12.5,-16.47 12.5,-28.43 0,-13.55 -9.5,-29.77 -28.44,-48.59 -1.49,-1.5 -2.58,-2.59 -3.28,-3.28 l -35,-35 57.81,0 0,17.17 10.78,0 0,-32.33 -89.22,0 0,10.16 42.03,41.87 c 9.26,9.25 15.86,17.73 19.85,25.47 3.94,7.81 5.94,15.98 5.94,24.53 0,9.38 -2.47,16.64 -7.35,21.88 -4.92,5.3 -11.64,7.96 -20.15,7.96 -8.75,0 -15.59,-2.27 -20.47,-6.71 -4.81,-4.38 -7.62,-10.95 -8.44,-19.7 z"
         style="fill:none;stroke:#000000;stroke-opacity:1;stroke-width:8;stroke-linecap:butt;stroke-linejoin:miter;stroke-miterlimit:4;stroke-dasharray:none"
         id="path488" /><g
         id="g490"
         transform="scale(10,10)"><text
           transform="matrix(1,0,0,-1,442.795,40.6215)"
           id="text492"><tspan
             style="fill:#000000;fill-opacity:1;fill-rule:nonzero;stroke:none;font-family:DejaVu Serif;font-variant:normal;font-weight:normal;font-size:19.2;writing-mode:lr;-inkscape-font-specification:DejaVuSerif"
             x="0 7.584"
             y="0"
             sodipodi:role="line"
             id="tspan494">I1</tspan></text>
</g><path
         d="m 4474.8,416.066 17.66,0 0,-9.851 -54.06,0 0,9.851 17.65,0 0,118.75 -17.65,0 0,9.84 54.06,0 0,-9.84 -17.66,0 0,-118.75 z m 55.94,-9.851 0,9.851 24.06,0 0,115.149 -27.96,-17.961 0,12.031 33.9,22.031 12.81,0 0,-131.25 24.07,0 0,-9.851 -66.88,0 z"
         style="fill:none;stroke:#000000;stroke-opacity:1;stroke-width:8;stroke-linecap:butt;stroke-linejoin:miter;stroke-miterlimit:4;stroke-dasharray:none"
         id="path496" /><g
         id="g498"
         transform="scale(10,10)"><text
           transform="matrix(1,0,0,-1,507.099,40.6215)"
           id="text500"><tspan
             style="fill:#000000;fill-opacity:1;fill-rule:nonzero;stroke:none;font-family:DejaVu Serif;font-variant:normal;font-weight:normal;font-size:19.2;writing-mode:lr;-inkscape-font-specification:DejaVuSerif"
             x="0 7.584"
             y="0"
             sodipodi:role="line"
             id="tspan502">I2</tspan></text>
</g><path
         d="m 5117.85,416.066 17.66,0 0,-9.851 -54.06,0 0,9.851 17.65,0 0,118.75 -17.65,0 0,9.84 54.06,0 0,-9.84 -17.66,0 0,-118.75 z m 53.24,95.622 -10.47,0 0,24.687 c 6.65,3.52 13.33,6.25 20,8.129 6.65,1.871 13.21,2.812 19.69,2.812 14.46,0 25.86,-3.562 34.22,-10.628 8.32,-6.993 12.5,-16.481 12.5,-28.434 0,-13.559 -9.49,-29.77 -28.44,-48.598 -1.48,-1.48 -2.57,-2.582 -3.28,-3.281 l -35,-35 57.81,0 0,17.191 10.79,0 0,-32.351 -89.22,0 0,10.16 42.03,41.879 c 9.26,9.25 15.86,17.73 19.84,25.461 3.95,7.82 5.94,15.98 5.94,24.539 0,9.371 -2.46,16.641 -7.34,21.871 -4.93,5.313 -11.64,7.969 -20.16,7.969 -8.75,0 -15.59,-2.27 -20.47,-6.719 -4.8,-4.371 -7.62,-10.937 -8.44,-19.687 z"
         style="fill:none;stroke:#000000;stroke-opacity:1;stroke-width:8;stroke-linecap:butt;stroke-linejoin:miter;stroke-miterlimit:4;stroke-dasharray:none"
         id="path504" /><g
         id="g506"
         transform="scale(10,10)"><text
           transform="matrix(1,0,0,-1,571.595,40.7574)"
           id="text508"><tspan
             style="fill:#000000;fill-opacity:1;fill-rule:nonzero;stroke:none;font-family:DejaVu Serif;font-variant:normal;font-weight:normal;font-size:19.2;writing-mode:lr;-inkscape-font-specification:DejaVuSerif"
             x="0 7.584"
             y="0"
             sodipodi:role="line"
             id="tspan510">I3</tspan></text>
</g><path
         d="m 5762.81,417.438 17.66,0 0,-9.852 -54.06,0 0,9.852 17.65,0 0,118.75 -17.65,0 0,9.839 54.06,0 0,-9.839 -17.66,0 0,-118.75 z m 47.31,122.808 c 7.26,2.692 14.22,4.758 20.78,6.25 6.64,1.442 12.89,2.192 18.75,2.192 13.51,0 24.1,-2.973 31.72,-8.911 7.58,-5.863 11.4,-13.91 11.4,-24.222 0,-8.438 -2.65,-15.469 -7.97,-21.09 -5.23,-5.551 -12.61,-9.301 -22.18,-11.25 11.33,-1.68 20.15,-5.86 26.4,-12.5 6.25,-6.57 9.38,-15.16 9.38,-25.777 0,-12.934 -4.34,-22.821 -12.97,-29.692 -8.67,-6.879 -21.17,-10.308 -37.5,-10.308 -7.31,0 -14.38,0.777 -21.25,2.339 -6.88,1.438 -13.71,3.789 -20.47,7.028 l 0,26.883 10.31,0 c 0.63,-8.993 3.6,-15.75 8.91,-20.321 5.39,-4.492 13.01,-6.722 22.81,-6.722 9.46,0 16.92,2.699 22.35,8.132 5.5,5.508 8.28,13.008 8.28,22.5 0,10.938 -2.82,19.137 -8.44,24.688 -5.63,5.621 -13.87,8.43 -24.69,8.43 l -8.9,0 0,9.543 4.68,0 c 10.82,0 18.95,2.218 24.38,6.707 5.39,4.46 8.12,11.179 8.12,20.16 0,8.133 -2.26,14.3 -6.72,18.59 -4.49,4.382 -10.89,6.57 -19.21,6.57 -8.36,0 -14.85,-2 -19.54,-5.938 -4.6,-3.98 -7.26,-9.839 -7.96,-17.66 l -10.47,0 0,24.379 z"
         style="fill:none;stroke:#000000;stroke-opacity:1;stroke-width:8;stroke-linecap:butt;stroke-linejoin:miter;stroke-miterlimit:4;stroke-dasharray:none"
         id="path512" /><g
         id="g514"
         transform="scale(10,10)"><text
           transform="matrix(1,0,0,-1,701.631,226.857)"
           id="text516"><tspan
             style="fill:#000000;fill-opacity:1;fill-rule:nonzero;stroke:none;font-family:DejaVu Serif;font-variant:normal;font-weight:bold;font-size:25.6;writing-mode:lr;-inkscape-font-specification:DejaVuSerif-Bold"
             x="0 18.4832 37.9904 46.8992"
             y="0"
             sodipodi:role="line"
             id="tspan518">SE 2</tspan></text>
</g><path
         d="M 4115,3617.78 3608.44,3111.22"
         style="fill:#000000;fill-opacity:1;fill-rule:nonzero;stroke:none"
         id="path520" /><path
         d="M 4115,3617.79 3608.44,3111.21"
         style="fill:none;stroke:#000000;stroke-opacity:1;stroke-width:28;stroke-linecap:butt;stroke-linejoin:miter;stroke-miterlimit:4;stroke-dasharray:none"
         id="path522" /></g><text
       xml:space="preserve"
       style="font-size:20px;font-style:normal;font-variant:normal;font-weight:normal;font-stretch:normal;text-align:start;line-height:125%;letter-spacing:0px;word-spacing:0px;writing-mode:lr-tb;text-anchor:start;fill:#000000;fill-opacity:1;stroke:none;font-family:Serif;-inkscape-font-specification:Serif"
       x="549.57477"
       y="784.94806"
       id="text4378"
       sodipodi:linespacing="125%"
       transform="matrix(0.8,0,0,-0.8,0,396)"><tspan
         sodipodi:role="line"
         id="tspan4380"
         x="549.57477"
         y="784.94806" /></text>
</g></svg>